<?xml version="1.0" encoding="UTF-8" standalone="no"?>
<svg
  xmlns:dc="http://purl.org/dc/elements/1.1/"
  height="1024"
  xmlns:rdf="http://www.w3.org/1999/02/22-rdf-syntax-ns#"
  id="svg8"
  inkscape:export-filename="/Users/benjamin/WebstormProjects/wgenerator/misc/logo_white.png"
  inkscape:export-xdpi="384"
  inkscape:export-ydpi="384"
  inkscape:version="1.0beta2 (2b71d25, 2019-12-03)"
  sodipodi:docname="logo_gear.svg"
  version="1.1"
  viewBox="0 0 270.93333 270.93334"
  width="1024"
  xmlns="http://www.w3.org/2000/svg"
  xmlns:cc="http://creativecommons.org/ns#"
  xmlns:inkscape="http://www.inkscape.org/namespaces/inkscape"
  xmlns:sodipodi="http://sodipodi.sourceforge.net/DTD/sodipodi-0.dtd">
  <defs
    id="defs2"/>
  <sodipodi:namedview
    bordercolor="#666666"
    borderopacity="1.0"
    id="base"
    inkscape:current-layer="layer1"
    inkscape:cx="-245.70049"
    inkscape:cy="848.48039"
    inkscape:document-rotation="0"
    inkscape:document-units="px"
    inkscape:pageopacity="0.0"
    inkscape:pageshadow="2"
    inkscape:window-height="1035"
    inkscape:window-maximized="1"
    inkscape:window-width="1920"
    inkscape:window-x="1792"
    inkscape:window-y="23"
    inkscape:zoom="0.26034986"
    pagecolor="#ffffff"
    showgrid="false"
    units="px"/>
  <metadata
    id="metadata5">
    <rdf:RDF>
      <cc:Work
        rdf:about="">
        <dc:format>image/svg+xml</dc:format>
        <dc:type
          rdf:resource="http://purl.org/dc/dcmitype/StillImage"/>
        <dc:title/>
      </cc:Work>
    </rdf:RDF>
  </metadata>
  <g
    id="layer1"
    inkscape:groupmode="layer"
    inkscape:label="Ebene 1">
    <path
      d="m 120.54193,37.600599 a 84.085908,84.085908 0 0 0 -15.15329,1.398014 v 6.690038 3.957292 1.200455 2.567952 1.143276 2.635089 1.086416 2.703192 1.029557 2.775149 0.972699 2.84871 0.916805 2.925806 0.861231 3.008366 0.805978 3.097351 0.75168 1.67203 h -3.87506 -1.550598 -5.6624 -1.34116 -4.69292 -1.27241 -4.15068 -1.25474 -3.79025 -1.26181 -3.525234 -1.283333 -3.316428 -1.313209 -3.145532 -1.348865 -0.09605 v 0.14327 2.0437 5.05174 2.26599 6.36623 2.851285 10.86642 0.94892 h 0.803087 2.774185 0.891104 2.838433 0.833282 2.903963 0.775783 2.970784 0.71796 3.04081 0.66046 3.11405 0.60392 3.19275 0.54642 5.7183 10.495388 v 30.92754 6.38807 0.59621 3.44846 0.646 3.31065 0.69869 3.19628 0.75169 3.09735 0.80598 3.00868 0.86059 2.92613 0.91681 2.84806 0.97334 2.77483 1.02956 2.70383 1.08642 2.63477 1.14327 2.56763 1.20078 3.95761 6.68939 a 84.085908,84.085908 0 0 0 15.26894,1.39834 84.085908,84.085908 0 0 0 15.26893,-1.39801 v -6.68972 -3.95761 -1.20045 -2.56764 -1.14359 -2.63509 -1.08642 -2.70351 -1.02924 -2.77482 -0.97335 -2.84838 -0.91681 -2.92581 -0.86123 -3.00836 -0.80598 -3.09735 -0.75169 -3.19661 -0.69836 -3.31065 -0.64632 -3.44814 -0.59589 -6.38872 -30.92721 h 10.49571 5.71798 0.54642 3.19275 0.6036 3.11406 0.66078 3.04048 0.71796 2.97079 0.7761 2.90364 0.8336 2.83811 0.89143 2.77419 0.80308 v -0.94828 -10.86738 -2.850645 -6.36655 -2.26599 -5.05174 -2.04338 -0.14359 h -0.0964 -1.34886 -3.14521 -1.31321 -3.31675 -1.28334 -3.52523 -1.26213 -3.78928 -1.25507 -4.151 -1.27177 -4.69388 -1.34051 -5.66241 -1.5506 -3.87506 V 80.975655 80.223975 77.126624 76.320646 73.31196 72.451372 69.525243 68.608438 65.760371 64.787029 62.012201 60.982644 58.27881 57.192394 54.557626 53.41435 50.84672 49.645943 45.688651 38.998935 a 84.085908,84.085908 0 0 0 -15.26893,-1.398336 84.085908,84.085908 0 0 0 -0.11565,0 z m -20.52209,2.572128 A 84.085908,84.085908 0 0 0 36.571779,121.6864 84.085908,84.085908 0 0 0 100.01984,203.20007 v -6.79475 A 77.516698,77.516698 0 0 1 43.141032,121.6864 77.516698,77.516698 0 0 1 100.01984,46.967808 Z m 41.27547,0 v 6.795081 a 77.516698,77.516698 0 0 1 56.87913,74.718592 77.516698,77.516698 0 0 1 -56.87913,74.71924 v 6.79443 A 84.085908,84.085908 0 0 0 204.74338,121.6864 84.085908,84.085908 0 0 0 141.29531,40.172727 Z M 100.01984,50.996736 A 73.64087,73.64087 0 0 0 61.869346,77.336711 h 1.477361 a 72.466578,72.466578 0 0 1 36.673133,-25.11607 z m 41.27547,0 v 1.224226 a 72.466578,72.466578 0 0 1 36.67282,25.115749 h 1.47768 a 73.64087,73.64087 0 0 0 -38.1505,-26.339975 z m -41.27547,3.844538 A 69.958826,69.958826 0 0 0 66.55263,77.336711 h 1.450054 A 68.843247,68.843247 0 0 1 100.01984,56.009286 Z m 41.27547,0 v 1.168012 a 68.843247,68.843247 0 0 1 32.01684,21.327425 h 1.45005 A 69.958826,69.958826 0 0 0 141.29531,54.841274 Z m 0,3.863493 v 1.113079 a 65.219915,65.219915 0 0 1 27.18225,17.518865 h 1.43143 A 66.276776,66.276776 0 0 0 141.29531,58.704767 Z m -41.27547,3.21e-4 A 66.276776,66.276776 0 0 0 71.406489,77.336711 h 1.431101 a 65.219915,65.219915 0 0 1 27.18225,-17.518865 z m 0,3.8863 A 62.594732,62.594732 0 0 0 76.485212,77.336711 h 1.42532 A 61.596585,61.596585 0 0 1 100.01984,63.649858 Z m 41.27547,6.42e-4 v 1.057828 a 61.596585,61.596585 0 0 1 22.10867,13.686853 h 1.42564 A 62.594732,62.594732 0 0 0 141.29531,62.59203 Z m -41.27547,3.915211 a 58.912687,58.912687 0 0 0 -18.140768,10.82947 h 1.44202 A 57.973252,57.973252 0 0 1 100.01984,67.51078 Z m 41.27547,0 v 1.00418 a 57.973252,57.973252 0 0 1 16.69811,9.82529 h 1.44235 a 58.912687,58.912687 0 0 0 -18.14046,-10.82947 z m 0,3.949262 v 0.950855 a 54.349922,54.349922 0 0 1 10.77936,5.929353 h 1.49984 a 55.230641,55.230641 0 0 0 -12.2792,-6.880208 z m -41.27547,3.2e-4 a 55.230641,55.230641 0 0 0 -12.278558,6.879888 h 1.49953 a 54.349922,54.349922 0 0 1 10.779028,-5.929674 z m 0,3.99263 a 51.548596,51.548596 0 0 0 -5.636708,2.887258 h 1.65147 a 50.726592,50.726592 0 0 1 3.985238,-1.989086 z m 41.27547,3.21e-4 v 0.89753 a 50.726592,50.726592 0 0 1 3.9862,1.989407 h 1.64987 a 51.548596,51.548596 0 0 0 -5.63607,-2.886937 z m -83.6184,9.073921 A 73.64087,73.64087 0 0 0 47.016731,121.6864 73.64087,73.64087 0 0 0 100.01984,192.37607 v -1.22423 A 72.466578,72.466578 0 0 1 48.190844,121.6864 72.466578,72.466578 0 0 1 57.67691,85.841725 Z m 125.96133,0 v 2.31803 a 72.466578,72.466578 0 0 1 9.48607,35.844675 72.466578,72.466578 0 0 1 -51.829,69.46576 v 1.22391 A 73.64087,73.64087 0 0 0 194.29842,121.6864 73.64087,73.64087 0 0 0 183.63824,83.523695 Z m -125.96133,7.70482 a 69.958826,69.958826 0 0 0 -6.978185,30.457885 69.958826,69.958826 0 0 0 49.321115,66.84545 v -1.16833 A 68.843247,68.843247 0 0 1 51.814052,121.6864 68.843247,68.843247 0 0 1 57.67691,93.886095 Z m 125.96133,9.6e-4 v 2.65629 a 68.843247,68.843247 0 0 1 5.86286,27.800635 68.843247,68.843247 0 0 1 -48.20579,65.67712 v 1.16833 A 69.958826,69.958826 0 0 0 190.61643,121.6864 69.958826,69.958826 0 0 0 183.63824,91.229475 Z M 57.67691,101.04546 a 66.276776,66.276776 0 0 0 -3.296191,20.64094 66.276776,66.276776 0 0 0 45.639121,62.98164 v -1.11308 A 65.219915,65.219915 0 0 1 55.437581,121.6864 65.219915,65.219915 0 0 1 57.67691,104.74383 Z m 125.96133,6.4e-4 v 3.69709 a 65.219915,65.219915 0 0 1 2.23933,16.94321 65.219915,65.219915 0 0 1 -44.58226,61.86824 v 1.11308 a 66.276776,66.276776 0 0 0 45.63913,-62.98132 66.276776,66.276776 0 0 0 -3.2962,-20.6403 z M 58.143985,118.49654 a 62.594732,62.594732 0 0 0 -0.08127,3.18986 62.594732,62.594732 0 0 0 41.957125,59.09437 v -1.05782 a 61.596585,61.596585 0 0 1 -40.959048,-58.03655 61.596585,61.596585 0 0 1 0.08288,-3.18986 z m 3.687455,0 a 58.912687,58.912687 0 0 0 -0.08641,3.18986 58.912687,58.912687 0 0 0 38.27481,55.17916 v -1.00418 a 57.973252,57.973252 0 0 1 -37.335519,-54.17498 57.973252,57.973252 0 0 1 0.08802,-3.18986 z m 3.687778,0 a 55.230641,55.230641 0 0 0 -0.0922,3.18986 55.230641,55.230641 0 0 0 34.592812,51.22958 v -0.95053 a 54.349922,54.349922 0 0 1 -33.712307,-50.27905 54.349922,54.349922 0 0 1 0.0938,-3.18986 z m 3.688739,0 a 51.548596,51.548596 0 0 0 -0.09894,3.18986 51.548596,51.548596 0 0 0 30.910823,47.23695 v -0.89785 a 50.726592,50.726592 0 0 1 -30.089105,-46.3391 50.726592,50.726592 0 0 1 0.100547,-3.18986 z m 3.689382,0 a 47.866551,47.866551 0 0 0 -0.106328,3.18986 47.866551,47.866551 0 0 0 27.228829,43.18875 v -0.84742 a 47.103261,47.103261 0 0 1 -26.465574,-42.34133 47.103261,47.103261 0 0 1 0.108256,-3.18986 z m 3.691313,0 a 44.184505,44.184505 0 0 0 -0.11565,3.18986 44.184505,44.184505 0 0 0 23.546838,39.06859 v -0.79859 a 43.479949,43.479949 0 0 1 -22.842368,-38.27 43.479949,43.479949 0 0 1 0.11725,-3.18986 z m 3.69227,0 a 40.502481,40.502481 0 0 0 -0.12592,3.18986 40.502481,40.502481 0 0 0 19.864838,34.85046 v -0.75298 a 39.85662,39.85662 0 0 1 -19.219158,-34.09748 39.85662,39.85662 0 0 1 0.12785,-3.18986 z m 3.69452,0 a 36.820437,36.820437 0 0 0 -0.13845,3.18986 36.820437,36.820437 0 0 0 16.182848,30.4929 v -0.71153 a 36.233291,36.233291 0 0 1 -15.595628,-29.78137 36.233291,36.233291 0 0 1 0.1407,-3.18986 z m 3.69774,0 a 33.138394,33.138394 0 0 0 -0.15387,3.18986 33.138394,33.138394 0 0 0 12.500528,25.92687 v -0.67813 a 32.609962,32.609962 0 0 1 -11.972418,-25.24874 32.609962,32.609962 0 0 1 0.15644,-3.18986 z m 6.04178,0 a 27.130847,27.130847 0 0 0 -0.18824,3.18986 27.130847,27.130847 0 0 0 6.493118,17.61171 v -20.80157 z m 47.580348,0 v 20.80092 a 27.130847,27.130847 0 0 0 6.49312,-17.61106 27.130847,27.130847 0 0 0 -0.18824,-3.18986 z m 11.81598,0 a 32.609962,32.609962 0 0 1 0.15644,3.18986 32.609962,32.609962 0 0 1 -11.97242,25.24874 v 0.67813 a 33.138394,33.138394 0 0 0 12.50054,-25.92687 33.138394,33.138394 0 0 0 -0.15388,-3.18986 z m 3.63863,0 a 36.233291,36.233291 0 0 1 0.14102,3.18986 36.233291,36.233291 0 0 1 -15.59563,29.78105 v 0.71185 a 36.820437,36.820437 0 0 0 16.18253,-30.4929 36.820437,36.820437 0 0 0 -0.13845,-3.18986 z m 3.63638,0 a 39.85662,39.85662 0 0 1 0.12785,3.18986 39.85662,39.85662 0 0 1 -19.21884,34.09716 v 0.75297 a 40.502481,40.502481 0 0 0 19.86484,-34.85013 40.502481,40.502481 0 0 0 -0.12592,-3.18986 z m 3.63413,0 a 43.479949,43.479949 0 0 1 0.11725,3.18986 43.479949,43.479949 0 0 1 -22.84237,38.27 v 0.79859 a 44.184505,44.184505 0 0 0 23.54684,-39.06859 44.184505,44.184505 0 0 0 -0.11532,-3.18986 z m 3.6322,0 a 47.103261,47.103261 0 0 1 0.10826,3.18986 47.103261,47.103261 0 0 1 -26.46558,42.34133 v 0.84742 a 47.866551,47.866551 0 0 0 27.22883,-43.18875 47.866551,47.866551 0 0 0 -0.10665,-3.18986 z m 3.63124,0 a 50.726592,50.726592 0 0 1 0.10055,3.18986 50.726592,50.726592 0 0 1 -30.08911,46.33878 v 0.89817 a 51.548596,51.548596 0 0 0 30.91083,-47.23695 51.548596,51.548596 0 0 0 -0.0989,-3.18986 z m 3.62996,0 a 54.349922,54.349922 0 0 1 0.0938,3.18986 54.349922,54.349922 0 0 1 -33.71232,50.27905 v 0.95053 a 55.230641,55.230641 0 0 0 34.59282,-51.22958 55.230641,55.230641 0 0 0 -0.0925,-3.18986 z m 3.62899,0 a 57.973252,57.973252 0 0 1 0.088,3.18986 57.973252,57.973252 0 0 1 -37.33553,54.1753 v 1.00418 a 58.912687,58.912687 0 0 0 38.27482,-55.17948 58.912687,58.912687 0 0 0 -0.0867,-3.18986 z m 3.62899,0 a 61.596585,61.596585 0 0 1 0.0825,3.18986 61.596585,61.596585 0 0 1 -40.95905,58.03687 v 1.05782 a 62.594732,62.594732 0 0 0 41.95713,-59.09469 62.594732,62.594732 0 0 0 -0.0816,-3.18986 z"
      id="path851"
      inkscape:connector-curvature="0"
      style="fill:#000000;fill-opacity:1;stroke:none;stroke-width:0.164472;stroke-miterlimit:4;stroke-dasharray:none"/>
    <path
      d="m 118.89379,7.5766734 -1.82068,4.6090396 -1.13997,4.613271 -4.28134,0.280083 -1.73241,-4.424182 -2.40753,-4.3331166 -3.49703,0.460711 -1.20301,4.8079536 -0.5294,4.722478 -4.207138,0.837525 -2.29544,-4.160877 -2.95228,-3.981688 -3.4074,0.913175 -0.56583,4.924189 0.0924,4.750515 -4.06142,1.37948 -2.81928,-3.826155 -3.4466,-3.561491 -3.258979,1.350081 0.08103,4.954949 0.712899,4.698744 -3.848591,1.897697 -3.294016,-3.425677 -3.880791,-3.081131 -3.055905,1.763247 0.728243,4.903178 1.319325,4.564225 -3.567092,2.383721 -3.712789,-2.964896 -4.250509,-2.548931 -2.799606,2.148381 1.361252,4.764497 1.903307,4.3542 -3.225343,2.829011 -4.067081,-2.455063 -4.547442,-1.973349 -2.494294,2.495724 1.971915,4.546011 2.455067,4.06852 -2.829015,3.225335 -4.352762,-1.903289 -4.765931,-1.361267 -2.14838,2.79818 2.548928,4.250582 2.966257,3.712717 -2.383646,3.567083 -4.565658,-1.317883 -4.901743,-0.728246 -1.76461,3.054529 3.082494,3.882158 3.424242,3.294026 -1.897697,3.847167 -4.697309,-0.711466 -4.956385,-0.08262 -1.350077,3.260396 3.56285,3.44661 3.824794,2.81783 -1.379479,4.06286 -4.750515,-0.0924 -4.924188,0.56583 -0.9131015,3.40739 3.9816115,2.95229 4.160878,2.29544 -0.837453,4.207135 -4.721115,0.52797 -4.8079515,1.20301 -0.460782,3.49846 4.3317525,2.40746 4.425615,1.73249 -0.281517,4.27992 -4.611836,1.14143 -4.6104745,1.82066 v 3.52786 l 4.6104745,1.8207 4.611836,1.13997 0.281517,4.28135 -4.425615,1.73241 -4.3317525,2.40609 0.460782,3.49847 4.8079515,1.20301 4.721115,0.5294 0.837453,4.20712 -4.160878,2.29546 -3.9816115,2.95227 0.9131015,3.40738 4.924188,0.56586 4.750515,-0.0924 1.379479,4.06143 -3.824794,2.81926 -3.56285,3.44662 1.350077,3.25897 4.956385,-0.0826 4.697309,-0.71147 1.897697,3.8486 -3.424242,3.29393 -3.082494,3.88088 1.76461,3.0559 4.901743,-0.72832 4.565658,-1.31925 2.383646,3.56706 -2.966257,3.71274 -2.548928,4.25057 2.14838,2.79963 4.765931,-1.36274 4.352762,-1.90326 2.829015,3.22532 -2.455067,4.06852 -1.971915,4.54744 2.494294,2.49428 4.547442,-1.97188 4.067081,-2.45517 3.225343,2.82768 -1.903307,4.3542 -1.361252,4.76593 2.799606,2.14839 4.250509,-2.55036 3.712789,-2.9649 3.567092,2.38371 -1.319325,4.56424 -0.728243,4.90316 3.055905,1.76464 3.880791,-3.08252 3.294016,-3.42425 3.848591,1.8977 -0.712899,4.69733 -0.08103,4.95637 3.258979,1.35009 3.4466,-3.56293 2.81928,-3.82471 4.06142,1.37802 -0.0924,4.75198 0.56583,4.92416 3.4074,0.91311 2.95228,-3.98305 2.29544,-4.15951 4.207138,0.83752 0.5294,4.72113 1.20301,4.80796 3.49703,0.46077 2.40753,-4.33321 1.73241,-4.42418 4.28134,0.28144 1.13997,4.61191 1.82068,4.61048 h 3.52787 l 1.82068,-4.61048 1.13999,-4.61191 4.28133,-0.28144 1.73242,4.42418 2.40754,4.33321 3.49701,-0.46077 1.20444,-4.80796 0.52798,-4.72113 4.20713,-0.83752 2.29543,4.15951 2.9523,3.98305 3.40739,-0.91311 0.56582,-4.92416 -0.0924,-4.75198 4.06287,-1.37802 2.81781,3.82471 3.44663,3.56293 3.25895,-1.35009 -0.0813,-4.95637 -0.71147,-4.69733 3.84716,-1.8977 3.29402,3.42425 3.88216,3.08252 3.05453,-1.76464 -0.72825,-4.90316 -1.31788,-4.56424 3.56709,-2.38371 3.71271,2.9649 4.25058,2.55036 2.79818,-2.14839 -1.36125,-4.76593 -1.90331,-4.3542 3.22534,-2.82768 4.06845,2.45517 4.54607,1.97188 2.49567,-2.49428 -1.97329,-4.54744 -2.45506,-4.06852 2.82901,-3.22532 4.35413,1.90326 4.76458,1.36274 2.14838,-2.79963 -2.54894,-4.25057 -2.9649,-3.71274 2.3823,-3.56706 4.56565,1.31925 4.90175,0.72832 1.7646,-3.0559 -3.08249,-3.88088 -3.42423,-3.29393 1.89769,-3.8486 4.69731,0.71147 4.95638,0.0826 1.35007,-3.25897 -3.56284,-3.44662 -3.82481,-2.81926 1.3795,-4.06143 4.7505,0.0924 4.9242,-0.56586 0.9131,-3.40738 -3.98161,-2.95227 -4.16088,-2.29546 0.83745,-4.20712 4.72254,-0.5294 4.80796,-1.20301 0.46071,-3.49847 -4.33312,-2.40609 -4.42426,-1.73241 0.28018,-4.28135 4.61326,-1.13997 4.60903,-1.8207 v -3.52786 l -4.60903,-1.82066 -4.61326,-1.14143 -0.28018,-4.27992 4.42426,-1.73249 4.33312,-2.40746 -0.46071,-3.49846 -4.80796,-1.20301 -4.72254,-0.52797 -0.83745,-4.207135 4.16088,-2.29544 3.98161,-2.95229 -0.9131,-3.40739 -4.9242,-0.56583 -4.7505,0.0924 -1.3795,-4.06286 3.82481,-2.81783 3.56284,-3.44661 -1.35007,-3.260396 -4.95638,0.08262 -4.69731,0.711466 -1.89769,-3.847167 3.42423,-3.294026 3.08249,-3.882158 -1.7646,-3.054529 -4.90175,0.728246 -4.56565,1.317883 -2.3823,-3.567083 2.9649,-3.712717 2.54894,-4.250582 -2.14838,-2.79818 -4.76458,1.361267 -4.35413,1.903289 -2.82901,-3.225335 2.45506,-4.06852 1.97329,-4.546011 -2.49567,-2.495724 -4.54607,1.973349 -4.06845,2.455063 -3.22534,-2.829011 1.90331,-4.3542 1.36125,-4.764497 -2.79818,-2.148381 -4.25058,2.548931 -3.71271,2.964896 -3.56709,-2.383721 1.31788,-4.564225 0.72825,-4.903178 -3.05453,-1.763247 -3.88216,3.081131 -3.29402,3.425677 -3.84716,-1.897697 0.71147,-4.698744 0.0813,-4.954949 -3.25895,-1.350081 -3.44663,3.561491 -2.81781,3.826155 -4.06287,-1.37948 0.0924,-4.750515 -0.56582,-4.924189 -3.40739,-0.913175 -2.9523,3.981688 -2.29543,4.160877 -4.20713,-0.837525 -0.52798,-4.722478 -1.20444,-4.8079536 -3.49701,-0.460711 -2.40754,4.3331166 -1.73242,4.424182 -4.28133,-0.280083 -1.13999,-4.613271 -1.82068,-4.6090396 z m 1.76462,20.8913726 a 93.217654,93.217679 0 0 1 93.21767,93.217694 93.217654,93.217679 0 0 1 -93.21767,93.21767 93.217654,93.217679 0 0 1 -93.217664,-93.21767 93.217654,93.217679 0 0 1 93.217664,-93.217694 z"
      id="path1393"
      inkscape:connector-curvature="0"
      style="fill:#000000;stroke:#000000;stroke-width:0.71706"/>
    <g
      aria-label="WORSHIP GENERATOR"
      id="text842"
      style="font-size:19.0224px;line-height:1.25;font-family:'Open Sans';-inkscape-font-specification:'Open Sans';stroke-width:0.222917"
      transform="scale(0.89098743,1.1223503)">
      <path
        d="m 26.154882,213.81237 q -1.569719,4.11471 -2.925809,8.08081 -1.3468,3.95681 -1.411818,4.13328 h -1.291071 q -0.04644,-0.17647 -1.003135,-2.95367 -0.947404,-2.78648 -2.507836,-6.92906 h -0.01858 q -1.365378,3.42738 -2.517124,6.55753 -1.142459,3.12086 -1.216765,3.3252 h -1.318936 q -0.07431,-0.26936 -1.198188,-3.641 -1.1145942,-3.38094 -2.9815387,-8.45234 l 1.5232781,-0.59445 q 0.037153,0.13004 1.0867286,3.26948 1.049576,3.13944 2.405665,7.0498 h 0.01858 q 1.430395,-3.60385 2.489259,-6.60397 1.068152,-3.00011 1.114594,-3.13944 h 1.439683 q 0.03715,0.15791 1.123882,3.39952 1.096018,3.24161 2.2199,6.34389 h 0.01858 q 1.486125,-4.05898 2.507836,-7.11482 1.021711,-3.05585 1.058864,-3.20446 z"
        id="path888"
        style="font-style:normal;font-variant:normal;font-weight:normal;font-stretch:normal;font-family:Skia;-inkscape-font-specification:Skia;stroke-width:0.222917"/>
      <path
        d="m 39.994421,219.75687 q 0,1.50471 -0.520144,2.76791 -0.510855,1.25392 -1.337512,2.07129 -0.91954,0.91025 -1.950539,1.32822 -1.030999,0.40869 -2.210611,0.40869 -1.151747,0 -2.173458,-0.39011 -1.021711,-0.3994 -1.83908,-1.17961 -0.900963,-0.84524 -1.45826,-2.12702 -0.548008,-1.29107 -0.548008,-2.89794 0,-1.4304 0.436549,-2.60072 0.436549,-1.17961 1.309648,-2.11773 0.80808,-0.8731 1.922674,-1.3468 1.114594,-0.48299 2.349935,-0.48299 1.253918,0 2.32207,0.45512 1.068153,0.44584 1.848368,1.24463 0.910252,0.92883 1.374666,2.19204 0.473702,1.25392 0.473702,2.67502 z m -1.588296,0.14862 q 0,-1.20748 -0.408684,-2.36852 -0.399396,-1.17032 -1.226053,-1.95982 -0.557297,-0.53872 -1.253918,-0.83595 -0.687333,-0.29722 -1.541855,-0.29722 -0.835945,0 -1.560431,0.30651 -0.715198,0.29722 -1.30036,0.88239 -0.743062,0.74306 -1.161035,1.83908 -0.408684,1.09601 -0.408684,2.28491 0,1.33752 0.417972,2.39638 0.427261,1.05886 1.198189,1.79264 0.529432,0.51085 1.253918,0.82666 0.724486,0.30651 1.551143,0.30651 0.826657,0 1.541854,-0.29723 0.724486,-0.30651 1.309648,-0.87309 0.696621,-0.66876 1.142459,-1.69976 0.445837,-1.04029 0.445837,-2.30349 z"
        id="path890"
        style="font-style:normal;font-variant:normal;font-weight:normal;font-stretch:normal;font-family:Skia;-inkscape-font-specification:Skia;stroke-width:0.222917"/>
      <path
        d="m 52.960864,225.22767 -1.161035,0.95669 q -0.204342,-0.21363 -1.448972,-1.60687 -1.244629,-1.40253 -3.83606,-4.36549 l 0.0093,-0.0836 q 0.352954,-0.0929 0.938116,-0.39939 0.585162,-0.3158 0.984558,-0.67805 0.343666,-0.3158 0.59445,-0.78021 0.260072,-0.46442 0.260072,-1.24463 0,-0.7152 -0.38082,-1.22605 -0.371531,-0.52015 -1.030999,-0.76164 -0.53872,-0.20435 -1.13317,-0.2415 -0.59445,-0.0464 -1.096018,-0.0464 -0.334378,0 -0.510855,0.009 -0.176477,0 -0.260072,0 -0.01858,1.76477 -0.02786,3.11157 0,1.3468 0,1.9041 0,1.27249 0.0093,3.45524 0.01858,2.18275 0.02786,2.74004 H 43.36607 q 0.0093,-0.55729 0.02786,-2.15488 0.01858,-1.60687 0.01858,-3.99396 0,-0.46441 0,-1.71833 0,-1.25392 -0.04644,-4.56983 0.09288,0 0.928828,-0.0186 0.835945,-0.0186 1.541855,-0.0186 0.80808,0 1.569719,0.0929 0.761639,0.0929 1.486125,0.3994 0.91954,0.39011 1.45826,1.15175 0.538721,0.75235 0.538721,1.77406 0,1.31894 -0.817369,2.20132 -0.80808,0.8731 -1.532566,1.30036 v 0.0464 q 1.272494,1.48613 2.786484,3.06514 1.523278,1.579 1.634737,1.69975 z"
        id="path892"
        style="font-style:normal;font-variant:normal;font-weight:normal;font-stretch:normal;font-family:Skia;-inkscape-font-specification:Skia;stroke-width:0.222917"/>
      <path
        d="m 61.371403,222.46905 q 0,0.95669 -0.455126,1.68118 -0.445837,0.7152 -1.207476,1.16104 -0.696621,0.40868 -1.597585,0.62231 -0.900963,0.20434 -1.99698,0.20434 -0.59445,0 -1.235342,-0.0371 -0.631603,-0.0372 -0.733774,-0.0464 l -0.07431,-1.33751 q 0.130036,0.0186 0.724486,0.0743 0.59445,0.0464 1.40253,0.0464 0.492279,0 1.272495,-0.13003 0.780216,-0.13004 1.198188,-0.33438 0.548009,-0.26936 0.835945,-0.65018 0.297225,-0.38082 0.297225,-0.96598 0,-0.62232 -0.297225,-1.04958 -0.287936,-0.43655 -0.965981,-0.83594 -0.436549,-0.26007 -1.13317,-0.58516 -0.696621,-0.32509 -1.253918,-0.66876 -0.947405,-0.57587 -1.356089,-1.25392 -0.399396,-0.68733 -0.399396,-1.52328 0,-0.85452 0.362243,-1.47683 0.371531,-0.63161 0.956693,-1.07744 0.59445,-0.44584 1.448972,-0.66876 0.86381,-0.22292 1.913386,-0.22292 0.575873,0 1.161035,0.0371 0.59445,0.0279 0.678044,0.0372 l 0.130036,1.3468 q -0.08359,-0.009 -0.678044,-0.065 -0.59445,-0.0557 -1.467549,-0.0557 -0.520144,0 -1.07744,0.12075 -0.548009,0.11146 -0.965982,0.35295 -0.371531,0.21363 -0.631603,0.59445 -0.260072,0.38082 -0.260072,0.89168 0,0.45512 0.269361,0.88238 0.278648,0.41798 1.030999,0.86381 0.380819,0.23221 1.003134,0.53872 0.631603,0.29723 1.235341,0.65018 0.928829,0.54801 1.393243,1.26321 0.473702,0.70591 0.473702,1.61616 z"
        id="path894"
        style="font-style:normal;font-variant:normal;font-weight:normal;font-stretch:normal;font-family:Skia;-inkscape-font-specification:Skia;stroke-width:0.222917"/>
      <path
        d="m 75.252737,225.97073 h -1.532566 q 0.0093,-0.55729 0.01858,-2.05271 0.01858,-1.5047 0.01858,-3.74317 -0.139324,0 -1.653314,0 -1.51399,-0.009 -2.275629,-0.009 -0.91954,0 -2.210611,0.009 -1.281783,0 -1.393242,0 0,2.58214 0.0093,3.91036 0.01858,1.32823 0.02786,1.88552 h -1.532566 q 0.0093,-0.55729 0.02787,-1.9784 0.01858,-1.42111 0.01858,-4.80204 0,-1.02171 -0.01858,-2.48926 -0.0093,-1.46755 -0.02787,-3.1673 h 1.532566 q 0,1.41181 -0.01858,2.77719 -0.01858,1.35609 -0.01858,2.58214 0.111459,0 1.207477,0.009 1.105305,0 2.405664,0 1.003135,0 2.414954,0 1.411818,-0.009 1.504701,-0.009 0,-1.22605 -0.01858,-2.58214 -0.01858,-1.35609 -0.01858,-2.77719 h 1.532566 q -0.01858,1.40253 -0.03715,3.24161 -0.0093,1.83907 -0.0093,3.00011 0,2.73075 0.01858,4.18901 0.01858,1.44898 0.02786,2.00627 z"
        id="path896"
        style="font-style:normal;font-variant:normal;font-weight:normal;font-stretch:normal;font-family:Skia;-inkscape-font-specification:Skia;stroke-width:0.222917"/>
      <path
        d="m 81.14151,225.97073 h -1.532567 q 0.0093,-0.55729 0.02787,-1.98769 0.01858,-1.43039 0.01858,-4.10542 0,-1.05886 -0.0093,-2.77719 -0.0093,-1.71834 -0.03715,-3.5667 h 1.532567 q -0.01858,1.32822 -0.03715,3.09299 -0.0093,1.75549 -0.0093,2.87008 0,2.82364 0.01858,4.37478 0.01858,1.54186 0.02786,2.09915 z"
        id="path898"
        style="font-style:normal;font-variant:normal;font-weight:normal;font-stretch:normal;font-family:Skia;-inkscape-font-specification:Skia;stroke-width:0.222917"/>
      <path
        d="m 93.281287,217.78776 q 0,1.35609 -0.882386,2.4521 -0.873099,1.09602 -2.340647,1.48613 -0.631603,0.16719 -1.383954,0.24149 -0.743063,0.0743 -1.662603,0.0743 l 0.01858,3.92894 h -1.532566 q 0.0093,-0.55729 0.02786,-2.06199 0.01858,-1.51399 0.01858,-4.67201 0,-1.00313 -0.0093,-2.46139 -0.0093,-1.45826 -0.03715,-3.24161 0.399396,-0.009 0.780215,-0.009 0.390108,0 0.631603,0 1.606873,0 2.730755,0.20434 1.13317,0.20434 1.904098,0.69662 0.845233,0.52943 1.291071,1.38395 0.445837,0.84524 0.445837,1.97841 z m -1.588296,0 q 0,-0.9567 -0.436549,-1.62545 -0.436549,-0.67805 -1.337513,-1.06815 -0.557296,-0.2415 -1.207476,-0.29723 -0.65018,-0.065 -1.337513,-0.065 -0.08359,0 -0.167189,0 -0.08359,0 -0.176477,0 0,0.10217 -0.01858,1.39325 -0.01858,1.29107 -0.01858,2.04342 0,0.68733 0,1.62545 0.0093,0.93811 0.0093,1.06815 0.0836,0 0.195054,0 0.111459,0 0.176477,0 0.622315,0 1.318936,-0.0836 0.70591,-0.0836 1.207477,-0.30651 0.873098,-0.37153 1.328224,-1.031 0.464414,-0.65947 0.464414,-1.65331 z"
        id="path900"
        style="font-style:normal;font-variant:normal;font-weight:normal;font-stretch:normal;font-family:Skia;-inkscape-font-specification:Skia;stroke-width:0.222917"/>
      <path
        d="m 110.18596,219.5804 q -0.0186,0.66875 -0.0371,1.56972 -0.0186,0.89167 -0.0186,1.47683 0,0.93812 0.0186,2.09915 0.0186,1.15175 0.0186,1.28179 -0.0836,0.009 -0.5573,0.0371 -0.4737,0.0371 -0.91954,0.0371 -2.21061,0 -3.91036,-0.4737 -1.69047,-0.4737 -2.9351,-1.65331 -0.77093,-0.72449 -1.24463,-1.79264 -0.46442,-1.07744 -0.46442,-2.45211 0,-1.69047 0.89168,-3.01869 0.90096,-1.33751 2.47068,-2.15488 1.06815,-0.5573 2.42424,-0.83595 1.36538,-0.28793 2.84222,-0.28793 0.2322,0 0.42726,0.009 0.20434,0 0.36224,0 l 0.11146,1.33751 q -0.0371,0 -0.29722,0 -0.26008,-0.009 -0.41798,-0.009 -1.4211,0 -2.60072,0.2415 -1.17961,0.24149 -2.06199,0.7059 -1.19819,0.63161 -1.88552,1.71834 -0.67805,1.08673 -0.67805,2.31278 0,1.55114 0.70591,2.57285 0.7152,1.01243 1.83908,1.5883 1.00313,0.51085 2.11773,0.72448 1.12388,0.20435 2.31278,0.20435 0,-0.14862 -0.009,-1.43969 -0.009,-1.30036 -0.0371,-3.7989 z"
        id="path902"
        style="font-style:normal;font-variant:normal;font-weight:normal;font-stretch:normal;font-family:Skia;-inkscape-font-specification:Skia;stroke-width:0.222917"/>
      <path
        d="m 122.00995,225.95216 q -0.0836,0 -1.23535,-0.009 -1.15174,-0.009 -2.8515,-0.009 -1.17961,0 -2.16417,0.009 -0.97527,0.009 -1.65331,0.009 0.0186,-0.53872 0.0279,-2.33136 0.0186,-1.79264 0.0186,-3.70603 0,-1.04957 -0.009,-2.77719 -0.009,-1.72762 -0.0371,-3.57599 0.65947,0 1.64402,0.009 0.99385,0.009 2.04343,0.009 1.77406,0 2.88865,-0.009 1.11459,-0.009 1.20748,-0.009 v 1.29107 q -0.0929,0 -1.17033,-0.009 -1.06815,-0.0186 -2.66573,-0.0186 -0.69662,0 -1.36538,0.009 -0.66876,0 -1.05886,0 0,1.04958 -0.0186,2.09916 -0.0186,1.04028 -0.0186,1.96911 0.41798,0 0.98456,0.009 0.57587,0 1.02171,0 1.63474,0 2.91652,-0.009 1.29107,-0.0186 1.37467,-0.0186 v 1.28178 q -0.0743,0 -1.53257,-0.009 -1.45826,-0.0186 -2.66574,-0.0186 -0.44583,0 -1.06815,0.009 -0.61302,0 -1.031,0 0,1.75549 0.009,2.78649 0.009,1.03099 0.0186,1.72762 0.54801,0.009 1.32822,0.0186 0.78022,0 1.68118,0 1.38395,0 2.32207,-0.009 0.94741,-0.009 1.05887,-0.009 z"
        id="path904"
        style="font-style:normal;font-variant:normal;font-weight:normal;font-stretch:normal;font-family:Skia;-inkscape-font-specification:Skia;stroke-width:0.222917"/>
      <path
        d="m 136.28603,213.53373 q -0.0186,1.45826 -0.0371,3.33449 -0.009,1.87623 -0.009,2.70289 0,2.63787 0.0186,4.1983 0.0186,1.55114 0.0186,1.65332 l -1.23535,0.60373 q -2.80506,-3.78962 -5.24787,-6.83617 -2.43353,-3.05585 -2.81435,-3.52955 l -0.0186,0.009 q 0,2.48926 0.0279,6.12098 0.0372,3.62243 0.0464,4.17972 h -1.44898 q 0.009,-0.2322 0.0279,-1.65331 0.0186,-1.42111 0.0186,-3.95681 0,-1.01242 -0.009,-2.68431 -0.009,-1.68118 -0.0372,-3.55741 l 1.41182,-0.66876 q 0.16719,0.21363 2.84222,3.61314 2.68431,3.39951 5.05282,6.31603 l 0.0186,-0.009 q 0,-1.43039 -0.0371,-4.81132 -0.0372,-3.39023 -0.0372,-5.02496 z"
        id="path906"
        style="font-style:normal;font-variant:normal;font-weight:normal;font-stretch:normal;font-family:Skia;-inkscape-font-specification:Skia;stroke-width:0.222917"/>
      <path
        d="m 148.53727,225.95216 q -0.0836,0 -1.23534,-0.009 -1.15174,-0.009 -2.8515,-0.009 -1.17961,0 -2.16417,0.009 -0.97527,0.009 -1.65331,0.009 0.0186,-0.53872 0.0279,-2.33136 0.0186,-1.79264 0.0186,-3.70603 0,-1.04957 -0.009,-2.77719 -0.009,-1.72762 -0.0371,-3.57599 0.65946,0 1.64402,0.009 0.99385,0.009 2.04342,0.009 1.77407,0 2.88866,-0.009 1.11459,-0.009 1.20748,-0.009 v 1.29107 q -0.0929,0 -1.17033,-0.009 -1.06815,-0.0186 -2.66573,-0.0186 -0.69663,0 -1.36538,0.009 -0.66876,0 -1.05887,0 0,1.04958 -0.0186,2.09916 -0.0186,1.04028 -0.0186,1.96911 0.41797,0 0.98456,0.009 0.57587,0 1.02171,0 1.63474,0 2.91652,-0.009 1.29107,-0.0186 1.37467,-0.0186 v 1.28178 q -0.0743,0 -1.53257,-0.009 -1.45826,-0.0186 -2.66574,-0.0186 -0.44583,0 -1.06815,0.009 -0.61303,0 -1.031,0 0,1.75549 0.009,2.78649 0.009,1.03099 0.0186,1.72762 0.548,0.009 1.32822,0.0186 0.78022,0 1.68118,0 1.38395,0 2.32207,-0.009 0.9474,-0.009 1.05886,-0.009 z"
        id="path908"
        style="font-style:normal;font-variant:normal;font-weight:normal;font-stretch:normal;font-family:Skia;-inkscape-font-specification:Skia;stroke-width:0.222917"/>
      <path
        d="m 161.70806,225.22767 -1.16104,0.95669 q -0.20434,-0.21363 -1.44897,-1.60687 -1.24463,-1.40253 -3.83606,-4.36549 l 0.009,-0.0836 q 0.35295,-0.0929 0.93811,-0.39939 0.58517,-0.3158 0.98456,-0.67805 0.34367,-0.3158 0.59445,-0.78021 0.26007,-0.46442 0.26007,-1.24463 0,-0.7152 -0.38082,-1.22605 -0.37153,-0.52015 -1.03099,-0.76164 -0.53872,-0.20435 -1.13317,-0.2415 -0.59445,-0.0464 -1.09602,-0.0464 -0.33438,0 -0.51086,0.009 -0.17647,0 -0.26007,0 -0.0186,1.76477 -0.0279,3.11157 0,1.3468 0,1.9041 0,1.27249 0.009,3.45524 0.0186,2.18275 0.0279,2.74004 h -1.53257 q 0.009,-0.55729 0.0279,-2.15488 0.0186,-1.60687 0.0186,-3.99396 0,-0.46441 0,-1.71833 0,-1.25392 -0.0464,-4.56983 0.0929,0 0.92883,-0.0186 0.83595,-0.0186 1.54186,-0.0186 0.80808,0 1.56971,0.0929 0.76164,0.0929 1.48613,0.3994 0.91954,0.39011 1.45826,1.15175 0.53872,0.75235 0.53872,1.77406 0,1.31894 -0.81737,2.20132 -0.80808,0.8731 -1.53256,1.30036 v 0.0464 q 1.27249,1.48613 2.78648,3.06514 1.52328,1.579 1.63474,1.69975 z"
        id="path910"
        style="font-style:normal;font-variant:normal;font-weight:normal;font-stretch:normal;font-family:Skia;-inkscape-font-specification:Skia;stroke-width:0.222917"/>
      <path
        d="m 174.3587,225.47845 -1.44897,0.74307 q -0.0372,-0.10217 -0.58517,-1.38396 -0.53872,-1.28178 -1.43039,-3.29734 h -5.55439 q -0.97527,2.16417 -1.50471,3.35307 -0.52943,1.1889 -0.58516,1.32823 l -1.24463,-0.66876 q 0.2415,-0.48299 1.9877,-4.25403 1.75548,-3.78033 3.641,-7.94148 h 1.20748 q 1.85765,4.16115 3.65029,8.06223 1.79264,3.90107 1.86695,4.05897 z m -3.99396,-5.12713 q -0.50157,-1.13317 -1.05887,-2.36851 -0.55729,-1.23534 -1.17032,-2.58214 h -0.0371 q -0.47371,1.02171 -1.14246,2.51712 -0.66876,1.48613 -1.10531,2.43353 l 0.009,0.009 h 4.49553 z"
        id="path912"
        style="font-style:normal;font-variant:normal;font-weight:normal;font-stretch:normal;font-family:Skia;-inkscape-font-specification:Skia;stroke-width:0.222917"/>
      <path
        d="m 184.16248,214.85266 q -0.14862,0 -1.24463,-0.009 -1.09602,-0.009 -3.31592,-0.009 -0.0186,1.9041 -0.0279,2.88866 -0.009,0.98456 -0.009,2.68431 0,1.63474 0.009,3.32521 0.0186,1.68118 0.0279,2.23847 h -1.53257 q 0.0186,-0.55729 0.0279,-2.27563 0.0186,-1.71833 0.0186,-3.36235 0,-1.61616 0,-2.56357 0,-0.95669 -0.0279,-2.9351 -1.9784,-0.009 -3.21374,0.009 -1.22606,0.009 -1.34681,0.009 v -1.29107 q 0.9567,0 2.32208,0.009 1.37466,0.009 2.9258,0.009 2.24777,0 3.75247,-0.009 1.51399,-0.009 1.63474,-0.009 z"
        id="path914"
        style="font-style:normal;font-variant:normal;font-weight:normal;font-stretch:normal;font-family:Skia;-inkscape-font-specification:Skia;stroke-width:0.222917"/>
      <path
        d="m 196.88742,219.75687 q 0,1.50471 -0.52014,2.76791 -0.51086,1.25392 -1.33752,2.07129 -0.91954,0.91025 -1.95054,1.32822 -1.031,0.40869 -2.21061,0.40869 -1.15174,0 -2.17346,-0.39011 -1.02171,-0.3994 -1.83907,-1.17961 -0.90097,-0.84524 -1.45826,-2.12702 -0.54801,-1.29107 -0.54801,-2.89794 0,-1.4304 0.43655,-2.60072 0.43654,-1.17961 1.30964,-2.11773 0.80808,-0.8731 1.92268,-1.3468 1.11459,-0.48299 2.34993,-0.48299 1.25392,0 2.32207,0.45512 1.06816,0.44584 1.84837,1.24463 0.91025,0.92883 1.37467,2.19204 0.4737,1.25392 0.4737,2.67502 z m -1.5883,0.14862 q 0,-1.20748 -0.40868,-2.36852 -0.3994,-1.17032 -1.22605,-1.95982 -0.5573,-0.53872 -1.25392,-0.83595 -0.68734,-0.29722 -1.54186,-0.29722 -0.83594,0 -1.56043,0.30651 -0.7152,0.29722 -1.30036,0.88239 -0.74306,0.74306 -1.16103,1.83908 -0.40869,1.09601 -0.40869,2.28491 0,1.33752 0.41798,2.39638 0.42726,1.05886 1.19818,1.79264 0.52944,0.51085 1.25392,0.82666 0.72449,0.30651 1.55114,0.30651 0.82666,0 1.54186,-0.29723 0.72449,-0.30651 1.30965,-0.87309 0.69662,-0.66876 1.14246,-1.69976 0.44583,-1.04029 0.44583,-2.30349 z"
        id="path916"
        style="font-style:normal;font-variant:normal;font-weight:normal;font-stretch:normal;font-family:Skia;-inkscape-font-specification:Skia;stroke-width:0.222917"/>
      <path
        d="m 209.85851,225.22767 -1.16104,0.95669 q -0.20434,-0.21363 -1.44897,-1.60687 -1.24463,-1.40253 -3.83606,-4.36549 l 0.009,-0.0836 q 0.35295,-0.0929 0.93812,-0.39939 0.58516,-0.3158 0.98455,-0.67805 0.34367,-0.3158 0.59445,-0.78021 0.26008,-0.46442 0.26008,-1.24463 0,-0.7152 -0.38082,-1.22605 -0.37154,-0.52015 -1.031,-0.76164 -0.53872,-0.20435 -1.13317,-0.2415 -0.59445,-0.0464 -1.09602,-0.0464 -0.33438,0 -0.51086,0.009 -0.17647,0 -0.26007,0 -0.0186,1.76477 -0.0279,3.11157 0,1.3468 0,1.9041 0,1.27249 0.009,3.45524 0.0186,2.18275 0.0279,2.74004 h -1.53257 q 0.009,-0.55729 0.0279,-2.15488 0.0186,-1.60687 0.0186,-3.99396 0,-0.46441 0,-1.71833 0,-1.25392 -0.0464,-4.56983 0.0929,0 0.92883,-0.0186 0.83595,-0.0186 1.54186,-0.0186 0.80808,0 1.56972,0.0929 0.76164,0.0929 1.48612,0.3994 0.91954,0.39011 1.45826,1.15175 0.53872,0.75235 0.53872,1.77406 0,1.31894 -0.81737,2.20132 -0.80808,0.8731 -1.53256,1.30036 v 0.0464 q 1.27249,1.48613 2.78648,3.06514 1.52328,1.579 1.63474,1.69975 z"
        id="path918"
        style="font-style:normal;font-variant:normal;font-weight:normal;font-stretch:normal;font-family:Skia;-inkscape-font-specification:Skia;stroke-width:0.222917"/>
    </g>
    <path
      d="m 226.63406,180.87553 -1.91842,4.38775 -0.27242,2.09092 0.24801,2.18535 -4.85387,0.96564 -0.60714,-2.11437 -1.05204,-1.82718 -3.45134,-3.31964 -2.61325,1.08256 -0.0935,4.78768 0.54835,2.03599 1.06587,1.92419 -4.11502,2.74978 -1.37007,-1.72119 -1.67106,-1.28558 -4.45906,-1.74622 -2.00033,2.00032 1.74623,4.45907 1.28558,1.67106 1.72118,1.37007 -2.74977,4.11501 -1.9242,-1.06585 -2.03599,-0.54803 -4.78768,0.0932 -1.08256,2.61326 3.31964,3.45166 1.82719,1.05173 2.11436,0.60714 -0.96563,4.85385 -2.18568,-0.24799 -2.0906,0.2724 -4.38775,1.91842 v 2.82879 l 4.38775,1.91842 2.0906,0.2724 2.18568,-0.24799 0.96563,4.85386 -2.11436,0.60713 -1.82719,1.05173 -3.31964,3.45167 1.08256,2.61325 4.78768,0.0932 2.03599,-0.54835 1.9242,-1.06554 2.74977,4.11501 -1.72118,1.36974 -1.28558,1.67139 -1.74623,4.45907 2.00033,2 4.45906,-1.74591 1.67106,-1.28591 1.37007,-1.72085 4.11502,2.74945 -1.06587,1.92452 -0.54835,2.03599 0.0935,4.78769 2.61325,1.08255 3.45134,-3.31964 1.05204,-1.8275 0.60714,-2.11405 4.85387,0.96564 -0.24801,2.18535 0.27242,2.09093 1.91842,4.38774 h 2.82879 l 1.9184,-4.38774 0.27242,-2.09093 -0.24833,-2.18535 4.85419,-0.96564 0.60714,2.11405 1.05171,1.8275 3.45168,3.31964 2.61324,-1.08255 0.0932,-4.78769 -0.54834,-2.03599 -1.06555,-1.92452 4.11503,-2.74945 1.36974,1.72085 1.67138,1.28591 4.45906,1.74591 2.00002,-2 -1.74591,-4.45907 -1.28591,-1.67139 -1.72085,-1.36974 2.74944,-4.11501 1.9242,1.06554 2.03599,0.54835 4.78801,-0.0932 1.08256,-2.61325 -3.31964,-3.45167 -1.8275,-1.05173 -2.11406,-0.60713 0.96532,-4.85386 2.18568,0.24799 2.09091,-0.2724 4.38776,-1.91842 v -2.82879 l -4.38776,-1.91842 -2.09091,-0.2724 -2.18568,0.24799 -0.96532,-4.85385 2.11406,-0.60714 1.8275,-1.05173 3.31964,-3.45166 -1.08256,-2.61326 -4.78801,-0.0932 -2.03599,0.54803 -1.9242,1.06585 -2.74944,-4.11501 1.72085,-1.37007 1.28591,-1.67106 1.74591,-4.45907 -2.00002,-2.00032 -4.45906,1.74622 -1.67138,1.28558 -1.36974,1.72119 -4.11503,-2.74978 1.06555,-1.92419 0.54834,-2.03599 -0.0932,-4.78768 -2.61324,-1.08256 -3.45168,3.31964 -1.05171,1.82718 -0.60714,2.11437 -4.85419,-0.96564 0.24833,-2.18535 -0.27242,-2.09092 -1.9184,-4.38775 z m 1.3935,18.197 a 20.028464,20.028464 0 0 1 0.0209,0 20.028464,20.028464 0 0 1 20.02835,20.02834 20.028464,20.028464 0 0 1 -20.02835,20.02835 20.028464,20.028464 0 0 1 -20.02867,-20.02835 20.028464,20.028464 0 0 1 20.00778,-20.02834 z"
      id="path873"
      inkscape:connector-curvature="0"
      style="fill:#000000;stroke:#000000;stroke-width:0.667615"/>
  </g>
</svg>
