<?xml version="1.0" encoding="UTF-8" standalone="no"?>
<svg
  height="1024"
  id="svg8"
  inkscape:version="1.0beta2 (2b71d25, 2019-12-03)"
  sodipodi:docname="logo.svg"
  version="1.1"
  viewBox="0 0 270.93333 270.93334"
  width="1024"
  xmlns="http://www.w3.org/2000/svg"
  xmlns:cc="http://creativecommons.org/ns#"
  xmlns:dc="http://purl.org/dc/elements/1.1/"
  xmlns:inkscape="http://www.inkscape.org/namespaces/inkscape"
  xmlns:rdf="http://www.w3.org/1999/02/22-rdf-syntax-ns#"
  xmlns:sodipodi="http://sodipodi.sourceforge.net/DTD/sodipodi-0.dtd"
  xmlns:xlink="http://www.w3.org/1999/xlink">
  <defs
    id="defs2"/>
  <sodipodi:namedview
    bordercolor="#666666"
    borderopacity="1.0"
    id="base"
    inkscape:current-layer="layer1"
    inkscape:cx="539.29395"
    inkscape:cy="569.57218"
    inkscape:document-rotation="0"
    inkscape:document-units="px"
    inkscape:pageopacity="0.0"
    inkscape:pageshadow="2"
    inkscape:window-height="1035"
    inkscape:window-maximized="1"
    inkscape:window-width="1920"
    inkscape:window-x="1792"
    inkscape:window-y="23"
    inkscape:zoom="0.69952339"
    pagecolor="#ffffff"
    showgrid="false"
    units="px"/>
  <metadata
    id="metadata5">
    <rdf:RDF>
      <cc:Work
        rdf:about="">
        <dc:format>image/svg+xml</dc:format>
        <dc:type
          rdf:resource="http://purl.org/dc/dcmitype/StillImage"/>
        <dc:title></dc:title>
      </cc:Work>
    </rdf:RDF>
  </metadata>
  <g
    id="layer1"
    inkscape:groupmode="layer"
    inkscape:label="Ebene 1">
    <path
      d="M 511.29688 0.75390625 A 511.24679 511.24679 0 0 0 0.75390625 512 A 511.24679 511.24679 0 0 0 512 1023.2461 A 511.24679 511.24679 0 0 0 1023.2461 512 A 511.24679 511.24679 0 0 0 512 0.75390625 A 511.24679 511.24679 0 0 0 511.29688 0.75390625 z M 511.02344 40.695312 A 471.30565 471.30565 0 0 1 512 40.695312 A 471.30565 471.30565 0 0 1 983.30664 512 A 471.30565 471.30565 0 0 1 512 983.30664 A 471.30565 471.30565 0 0 1 40.695312 512 A 471.30565 471.30565 0 0 1 511.02344 40.695312 z "
      id="path851"
      style="fill:#000000;fill-opacity:1;stroke:#000000;stroke-width:1;stroke-miterlimit:4;stroke-dasharray:none"
      transform="scale(0.26458333)"/>
    <path
      d="M 260.1663,-135.46667 A 124.69962,124.69962 0 0 1 135.46667,-10.767052 124.69962,124.69962 0 0 1 10.767052,-135.46667 124.69962,124.69962 0 0 1 135.46667,-260.1663 124.69962,124.69962 0 0 1 260.1663,-135.46667"
      id="circle839"
      style="fill:none;fill-opacity:0.672;stroke:#000000;stroke-width:0.26458333;stroke-miterlimit:4;stroke-dasharray:none"
      transform="rotate(90)"/>
    <path
      d="M 511.52539 64.259766 A 447.74041 447.74041 0 0 0 64.259766 512 A 447.74041 447.74041 0 0 0 512 959.74023 A 447.74041 447.74041 0 0 0 959.74023 512 A 447.74041 447.74041 0 0 0 512 64.259766 A 447.74041 447.74041 0 0 0 511.52539 64.259766 z M 511.81836 71.398438 A 440.60065 440.60065 0 0 1 512 71.398438 A 440.60065 440.60065 0 0 1 952.60156 512 A 440.60065 440.60065 0 0 1 512 952.60156 A 440.60065 440.60065 0 0 1 71.398438 512 A 440.60065 440.60065 0 0 1 511.81836 71.398438 z "
      id="use921"
      inkscape:tile-cx="135.46666"
      inkscape:tile-cy="135.46665"
      inkscape:tile-h="237.19378"
      inkscape:tile-w="237.19378"
      inkscape:tile-x0="16.869771"
      inkscape:tile-y0="16.869771"
      style="fill:#000000;fill-opacity:1;stroke:#000000;stroke-width:1;stroke-miterlimit:4;stroke-dasharray:none"
      transform="scale(0.26458333)"/>
    <path
      d="M 512 347.04297 A 164.95698 164.95698 0 0 0 347.04297 512 A 164.95698 164.95698 0 0 0 512 676.95703 A 164.95698 164.95698 0 0 0 676.95703 512 A 164.95698 164.95698 0 0 0 512 347.04297 z M 511.72266 488.43555 A 23.565283 23.565283 0 0 1 512 488.43555 A 23.565283 23.565283 0 0 1 535.56445 512 A 23.565283 23.565283 0 0 1 512 535.56445 A 23.565283 23.565283 0 0 1 488.43555 512 A 23.565283 23.565283 0 0 1 511.72266 488.43555 z "
      id="use945"
      style="fill:#000000;fill-opacity:1;stroke:#000000;stroke-width:1;stroke-miterlimit:4;stroke-dasharray:none"
      transform="scale(0.26458333)"/>
    <use
      id="use1034"
      inkscape:tiled-clone-of="#use921"
      x="0"
      xlink:href="#use921"
      y="0"/>
    <use
      id="use1036"
      inkscape:tiled-clone-of="#use921"
      transform="matrix(0.95,0,0,0.95,6.7733331,6.7733327)"
      x="0"
      xlink:href="#use921"
      y="0"/>
    <use
      id="use1038"
      inkscape:tiled-clone-of="#use921"
      transform="matrix(0.9,0,0,0.9,13.546666,13.546665)"
      x="0"
      xlink:href="#use921"
      y="0"/>
    <use
      id="use1040"
      inkscape:tiled-clone-of="#use921"
      transform="matrix(0.85,0,0,0.85,20.319999,20.319998)"
      x="0"
      xlink:href="#use921"
      y="0"/>
    <use
      id="use1042"
      inkscape:tiled-clone-of="#use921"
      transform="matrix(0.8,0,0,0.8,27.093332,27.093331)"
      x="0"
      xlink:href="#use921"
      y="0"/>
    <use
      id="use1044"
      inkscape:tiled-clone-of="#use921"
      transform="matrix(0.75,0,0,0.75,33.866665,33.866663)"
      x="0"
      xlink:href="#use921"
      y="0"/>
    <use
      id="use1046"
      inkscape:tiled-clone-of="#use921"
      transform="matrix(0.7,0,0,0.7,40.639999,40.639996)"
      x="0"
      xlink:href="#use921"
      y="0"/>
    <use
      id="use1048"
      inkscape:tiled-clone-of="#use921"
      transform="matrix(0.65,0,0,0.65,47.413332,47.413329)"
      x="0"
      xlink:href="#use921"
      y="0"/>
    <use
      id="use1050"
      inkscape:tiled-clone-of="#use921"
      transform="matrix(0.6,0,0,0.6,54.186665,54.186661)"
      x="0"
      xlink:href="#use921"
      y="0"/>
    <use
      id="use1052"
      inkscape:tiled-clone-of="#use921"
      transform="matrix(0.55,0,0,0.55,60.959998,60.959994)"
      x="0"
      xlink:href="#use921"
      y="0"/>
    <use
      id="use1054"
      inkscape:tiled-clone-of="#use921"
      transform="matrix(0.5,0,0,0.5,67.733331,67.733327)"
      x="0"
      xlink:href="#use921"
      y="0"/>
    <use
      id="use1056"
      inkscape:tiled-clone-of="#use921"
      transform="matrix(0.45,0,0,0.45,74.506664,74.506659)"
      x="0"
      xlink:href="#use921"
      y="0"/>
  </g>
</svg>
