<?xml version="1.0" standalone="no"?>
<!DOCTYPE svg PUBLIC "-//W3C//DTD SVG 20010904//EN"
  "http://www.w3.org/TR/2001/REC-SVG-20010904/DTD/svg10.dtd">
<svg height="4090.000000pt" preserveAspectRatio="xMidYMid meet"
     version="1.0" viewBox="0 0 4090.000000 4090.000000" width="4090.000000pt"
     xmlns="http://www.w3.org/2000/svg">
  <metadata>
    Created by potrace 1.11, written by Peter Selinger 2001-2013
  </metadata>
  <g fill="#000000"
     stroke="none" transform="translate(0.000000,4090.000000) scale(0.100000,-0.100000)">
    <path d="M19918 40895 c-2 -1 -95 -6 -208 -10 -113 -3 -230 -8 -260 -10 -30
-2 -113 -6 -185 -9 -71 -4 -146 -9 -165 -11 -19 -2 -83 -7 -142 -10 -59 -3
-115 -8 -125 -9 -10 -2 -61 -7 -113 -11 -52 -3 -111 -8 -130 -10 -19 -2 -69
-6 -111 -10 -41 -3 -84 -7 -95 -9 -16 -3 -105 -13 -184 -21 -65 -6 -167 -17
-180 -20 -8 -2 -43 -6 -77 -10 -72 -8 -92 -11 -148 -19 -22 -3 -76 -10 -121
-16 -44 -6 -91 -12 -103 -15 -13 -2 -44 -7 -69 -10 -40 -4 -319 -47 -392 -60
-72 -12 -327 -57 -340 -60 -8 -2 -19 -4 -25 -4 -7 -1 -10 -1777 -10 -5309 l1
-5307 -5213 0 c-5207 0 -5213 0 -5214 -20 -3 -149 1 -7399 5 -7403 3 -2 2349
-5 5213 -6 l5208 -1 1 -11084 c0 -10976 0 -11085 20 -11092 10 -4 51 -12 89
-19 39 -6 90 -15 115 -20 25 -5 106 -19 180 -30 74 -12 146 -23 160 -25 74
-12 160 -25 200 -30 25 -3 72 -10 105 -15 122 -18 258 -36 340 -45 28 -3 61
-8 75 -10 30 -4 108 -13 170 -19 46 -5 226 -24 290 -31 19 -2 69 -7 110 -10
41 -3 96 -8 122 -11 25 -2 77 -6 115 -9 37 -2 100 -7 138 -10 110 -9 250 -18
470 -30 357 -20 1386 -27 1755 -12 342 14 435 19 610 32 30 2 93 7 140 10 47
3 105 7 130 10 25 2 79 6 120 9 41 4 95 8 120 11 55 5 141 13 218 20 31 3 71
7 87 9 17 3 57 8 90 11 33 4 76 9 95 11 19 2 60 7 90 10 30 3 67 7 81 10 15 2
47 6 70 9 24 3 60 7 79 10 19 2 55 7 80 10 25 3 56 8 70 10 14 2 45 7 70 10
25 3 52 8 60 10 8 2 39 7 69 10 30 4 62 8 72 10 9 2 39 7 66 11 26 3 57 8 68
10 10 2 37 6 60 9 22 4 90 15 150 25 61 11 124 22 140 24 17 3 54 10 84 16 29
5 54 10 55 10 0 0 1 4989 1 11088 l0 11087 5208 1 c2864 1 5210 3 5213 6 6 7
7 7405 1 7415 -3 5 -2348 8 -5211 8 -2863 0 -5207 2 -5207 5 -1 3 -3 2389 -3
5302 -1 2914 -5 5300 -9 5304 -4 4 -26 10 -49 14 -24 4 -151 26 -283 48 -132
23 -260 43 -285 47 -25 3 -56 8 -70 10 -33 6 -110 17 -205 30 -23 3 -50 7 -60
9 -11 2 -49 7 -85 11 -36 4 -72 9 -81 10 -14 3 -64 9 -154 20 -16 2 -57 6 -90
10 -33 3 -77 8 -97 11 -21 2 -55 6 -75 8 -66 8 -285 29 -428 41 -198 17 -239
20 -395 30 -58 3 -125 8 -150 10 -25 2 -115 7 -200 11 -85 3 -184 8 -220 10
-77 5 -1307 13 -1312 9z"/>
    <path d="M15310 40244 c-47 -13 -121 -33 -165 -44 -155 -40 -679 -193 -725
-210 -14 -6 -34 -12 -45 -14 -31 -6 -502 -161 -660 -217 -303 -108 -582 -211
-660 -243 -16 -7 -68 -28 -115 -46 -47 -17 -94 -36 -105 -41 -11 -4 -103 -43
-205 -85 -183 -75 -438 -184 -535 -229 -27 -12 -72 -33 -100 -45 -27 -12 -81
-37 -120 -55 -38 -18 -101 -47 -140 -65 -118 -54 -643 -315 -775 -385 -280
-149 -422 -226 -435 -235 -5 -4 -37 -22 -70 -40 -33 -18 -75 -42 -92 -52 -18
-10 -50 -27 -70 -39 -155 -87 -346 -200 -405 -241 -15 -10 -30 -18 -33 -18
-19 0 -729 -459 -1000 -645 -141 -98 -463 -326 -490 -348 -5 -4 -35 -26 -65
-48 -64 -46 -62 -45 -240 -180 -206 -156 -579 -454 -770 -616 -135 -114 -399
-344 -526 -458 -57 -52 -190 -173 -218 -198 -229 -211 -696 -673 -926 -917
-74 -78 -148 -157 -165 -174 -16 -18 -68 -74 -115 -126 -47 -52 -92 -101 -100
-110 -8 -9 -44 -49 -80 -90 -36 -41 -67 -77 -71 -80 -9 -8 -301 -350 -358
-420 -30 -36 -57 -67 -60 -70 -4 -3 -40 -48 -81 -100 -41 -52 -81 -101 -88
-108 -7 -8 -25 -30 -40 -50 -15 -21 -29 -39 -32 -42 -27 -26 -416 -540 -545
-720 -50 -69 -94 -129 -98 -135 -5 -5 -60 -84 -123 -175 -62 -91 -117 -170
-121 -175 -9 -12 -44 -65 -190 -285 -166 -251 -426 -670 -543 -875 -10 -16
-41 -70 -70 -120 -29 -49 -64 -110 -78 -135 -13 -25 -41 -74 -62 -110 -36 -63
-149 -272 -265 -490 -145 -274 -462 -930 -570 -1180 -18 -41 -44 -101 -59
-133 -14 -31 -38 -85 -52 -120 -14 -34 -32 -75 -39 -92 -39 -87 -171 -416
-275 -685 -101 -261 -292 -808 -365 -1040 -13 -41 -44 -140 -68 -220 -49 -155
-158 -530 -202 -695 -38 -144 -126 -486 -131 -515 -3 -14 -16 -70 -30 -125
-13 -55 -26 -109 -29 -120 -2 -11 -13 -63 -25 -115 -12 -52 -24 -108 -26 -125
-3 -16 -7 -36 -9 -43 -4 -10 -48 -218 -61 -287 -2 -11 -8 -42 -14 -70 -5 -27
-12 -62 -14 -77 -3 -15 -12 -63 -20 -105 -18 -91 -24 -125 -32 -173 -2 -19
-11 -69 -19 -110 -13 -74 -29 -167 -40 -245 -4 -22 -9 -53 -12 -70 -2 -16 -6
-39 -8 -50 -1 -11 -5 -38 -9 -60 -3 -22 -15 -107 -26 -190 -12 -82 -23 -161
-25 -175 -6 -34 -25 -194 -31 -250 -2 -25 -9 -79 -14 -120 -5 -41 -12 -102
-15 -135 -3 -33 -8 -76 -10 -95 -3 -19 -7 -66 -11 -105 -3 -38 -7 -86 -9 -105
-2 -19 -7 -71 -10 -115 -3 -44 -8 -93 -10 -110 -2 -16 -7 -82 -10 -145 -4 -63
-8 -126 -10 -140 -2 -14 -7 -86 -10 -160 -4 -74 -9 -160 -10 -190 -27 -422
-26 -1535 0 -2005 2 -33 6 -114 10 -180 3 -66 8 -142 10 -170 2 -27 6 -93 10
-145 3 -52 8 -113 10 -135 2 -22 6 -74 10 -115 7 -88 12 -131 21 -220 3 -36 7
-78 9 -95 7 -80 15 -153 20 -185 3 -19 7 -60 10 -90 2 -30 7 -66 9 -80 5 -26
15 -109 21 -170 2 -19 6 -53 9 -75 3 -21 11 -75 16 -120 17 -124 20 -146 30
-205 5 -30 12 -75 15 -100 6 -43 71 -439 80 -490 3 -14 8 -41 11 -60 3 -19 18
-100 34 -180 15 -80 31 -163 36 -185 4 -22 8 -44 10 -50 4 -19 76 -360 85
-402 4 -23 15 -68 23 -100 8 -32 17 -69 19 -83 3 -14 10 -45 17 -70 7 -25 14
-54 16 -65 2 -11 24 -101 49 -200 25 -99 48 -188 50 -197 36 -156 234 -834
330 -1128 143 -441 400 -1147 502 -1381 11 -24 28 -64 37 -89 10 -25 22 -54
27 -65 5 -11 35 -83 68 -160 203 -482 509 -1126 741 -1560 121 -228 171 -318
248 -455 36 -63 76 -135 90 -160 40 -71 251 -428 296 -501 23 -36 46 -74 53
-85 125 -205 431 -672 586 -894 37 -52 71 -102 77 -110 169 -247 523 -717 793
-1054 135 -168 487 -590 506 -606 3 -3 35 -39 71 -80 74 -86 94 -108 251 -280
63 -69 118 -130 124 -136 201 -224 820 -841 1080 -1079 17 -15 68 -62 114
-104 46 -42 94 -85 105 -96 12 -11 109 -97 216 -191 479 -418 856 -720 1465
-1169 303 -224 961 -664 1301 -869 27 -17 99 -60 159 -97 145 -87 474 -279
481 -279 2 0 21 -11 42 -23 35 -22 271 -153 445 -246 115 -62 668 -340 772
-388 50 -23 139 -65 199 -93 611 -286 1351 -582 2031 -813 251 -85 749 -243
793 -252 9 -1 46 -12 82 -23 191 -59 646 -182 672 -182 4 0 8 371 8 824 0 777
-1 825 -17 830 -10 3 -83 23 -163 46 -379 108 -1154 361 -1315 429 -11 5 -36
14 -55 21 -37 13 -40 14 -140 53 -36 14 -119 47 -185 72 -295 114 -789 325
-1048 449 -65 31 -121 56 -123 56 -8 0 -571 282 -729 365 -82 43 -237 127
-344 187 -107 59 -198 108 -203 108 -4 0 -8 5 -8 10 0 6 -5 10 -10 10 -6 0
-40 18 -76 40 -36 22 -67 40 -69 40 -2 0 -102 59 -222 132 -758 457 -1443 938
-2157 1513 -61 49 -113 92 -116 95 -3 3 -59 50 -125 105 -66 55 -122 102 -125
105 -3 3 -54 48 -115 100 -60 52 -112 97 -115 100 -3 3 -43 39 -90 80 -46 41
-91 82 -100 90 -9 8 -65 60 -125 115 -322 297 -732 706 -1056 1056 -48 52 -93
101 -184 204 -44 49 -85 94 -91 100 -23 21 -317 367 -458 540 -433 529 -872
1129 -1231 1685 -38 58 -83 128 -101 155 -79 123 -249 402 -338 557 -33 57
-67 114 -77 128 -18 27 -251 450 -344 625 -194 365 -504 1013 -645 1350 -23
55 -47 114 -55 130 -185 419 -488 1256 -659 1820 -44 146 -164 565 -171 595
-7 31 -37 146 -45 175 -11 35 -65 253 -109 440 -28 123 -58 256 -101 460 -18
85 -85 424 -94 483 -13 76 -48 281 -52 307 -2 17 -9 55 -14 85 -5 30 -12 75
-15 100 -3 25 -8 56 -10 70 -8 44 -15 86 -20 125 -2 22 -9 73 -15 115 -6 42
-13 94 -16 115 -2 22 -7 56 -9 75 -3 19 -7 60 -11 90 -3 30 -7 66 -9 80 -7 42
-22 176 -30 270 -3 36 -8 81 -10 100 -3 19 -7 64 -10 100 -3 36 -7 88 -10 115
-5 57 -12 153 -20 270 -3 44 -7 105 -10 135 -2 30 -7 109 -10 175 -3 66 -8
161 -10 210 -21 406 -21 1168 0 1620 11 238 26 480 40 655 2 25 7 83 10 130 4
47 8 92 10 100 1 8 6 58 11 110 4 52 8 97 9 100 1 3 5 43 9 90 7 84 9 96 20
175 3 22 8 65 11 95 3 30 7 66 10 80 2 14 7 46 10 73 13 112 17 143 20 157 3
8 7 40 10 70 3 30 8 62 10 70 2 8 7 39 10 69 4 30 9 63 11 75 2 12 7 41 10 66
3 24 7 47 9 50 2 4 7 29 10 57 3 27 8 60 10 74 4 21 27 148 41 234 22 130 110
562 154 760 17 77 33 147 35 155 3 13 99 407 110 450 155 603 368 1279 593
1880 82 222 172 451 198 507 7 17 14 33 14 36 0 18 285 670 397 907 52 111
344 695 386 773 21 37 53 97 73 135 225 416 516 907 772 1302 83 128 223 339
235 355 4 5 73 104 154 220 204 293 584 799 734 980 10 11 70 85 135 165 65
80 123 150 129 156 21 22 109 126 129 152 11 15 25 32 31 37 6 6 40 44 75 85
56 65 298 335 355 396 431 461 904 926 1280 1259 38 33 73 65 79 70 222 205
801 676 1166 948 124 93 241 180 260 195 19 15 48 36 65 48 16 11 54 37 83 57
198 140 285 199 490 335 270 180 424 277 725 458 234 140 211 127 482 279 436
244 962 513 1300 665 28 12 83 38 122 56 40 18 142 63 225 99 84 37 169 74
188 82 160 73 720 292 1030 403 175 63 757 257 788 264 10 2 24 6 32 9 15 6
340 101 453 132 l57 16 0 825 c0 778 -1 824 -17 823 -10 -1 -56 -12 -103 -25z"/>
    <path d="M25470 39445 l0 -824 43 -11 c683 -181 1862 -601 2470 -879 37 -17
70 -31 72 -31 32 0 992 -466 1266 -615 68 -37 153 -83 189 -103 238 -129 727
-415 952 -558 287 -182 360 -229 370 -241 6 -7 16 -13 22 -13 7 0 21 -8 32
-17 11 -10 28 -22 37 -28 156 -94 1107 -782 1167 -845 3 -3 25 -21 50 -40 123
-95 497 -403 585 -481 17 -15 53 -46 80 -70 28 -24 80 -70 115 -101 36 -31 74
-65 86 -75 71 -62 309 -282 458 -423 139 -133 498 -492 631 -632 165 -175 175
-185 369 -398 233 -255 553 -636 811 -965 82 -104 164 -210 183 -235 142 -189
201 -268 320 -435 441 -616 922 -1385 1262 -2020 24 -44 59 -109 78 -145 49
-92 323 -640 365 -730 38 -84 149 -323 177 -385 61 -132 212 -487 260 -610 17
-44 35 -89 40 -100 5 -11 19 -45 30 -75 11 -30 25 -64 30 -75 56 -126 398
-1100 415 -1185 2 -8 4 -15 5 -15 1 0 3 -7 5 -15 1 -8 12 -42 23 -75 11 -33
41 -132 66 -220 25 -88 58 -200 72 -249 14 -48 27 -97 29 -107 2 -11 6 -23 9
-27 3 -5 7 -19 9 -33 3 -13 17 -68 32 -122 14 -53 28 -105 30 -115 2 -9 27
-111 55 -227 29 -115 54 -221 57 -235 2 -14 19 -92 38 -175 29 -130 43 -195
59 -280 2 -11 11 -54 19 -95 9 -41 18 -87 21 -103 12 -68 26 -144 31 -167 8
-38 53 -300 60 -345 3 -22 10 -69 16 -105 6 -36 13 -78 15 -95 3 -16 9 -61 15
-100 17 -115 18 -118 24 -170 4 -27 8 -61 10 -75 3 -14 7 -47 10 -75 3 -27 8
-61 10 -75 2 -14 6 -47 10 -75 3 -27 7 -63 9 -80 2 -16 7 -61 11 -100 6 -64 9
-93 20 -180 2 -16 7 -61 10 -100 3 -38 8 -88 10 -110 4 -37 8 -83 20 -235 21
-254 39 -595 50 -930 6 -158 6 -891 0 -1065 -7 -253 -28 -675 -40 -815 -3 -30
-7 -89 -10 -130 -3 -41 -8 -91 -10 -110 -2 -19 -7 -75 -10 -123 -4 -48 -8 -96
-10 -105 -1 -9 -6 -53 -9 -97 -4 -44 -9 -91 -11 -105 -2 -14 -6 -54 -10 -90
-4 -36 -8 -76 -10 -90 -3 -14 -7 -50 -10 -80 -11 -93 -24 -200 -30 -229 -1 -9
-6 -43 -10 -76 -4 -32 -8 -66 -10 -75 -4 -22 -16 -111 -21 -145 -3 -31 -13
-94 -20 -130 -2 -10 -6 -37 -9 -60 -4 -22 -15 -89 -25 -150 -11 -60 -22 -126
-25 -145 -4 -19 -13 -71 -21 -115 -8 -44 -19 -107 -25 -139 -5 -33 -12 -63
-14 -66 -3 -4 -7 -22 -9 -41 -6 -47 -58 -297 -103 -494 -9 -40 -13 -61 -17
-83 -38 -187 -212 -842 -318 -1192 -265 -883 -622 -1823 -962 -2534 -36 -76
-66 -140 -66 -143 0 -7 -287 -579 -350 -698 -129 -244 -225 -418 -368 -665
-97 -168 -269 -455 -327 -545 -18 -27 -65 -102 -105 -165 -307 -485 -747
-1101 -1117 -1565 -35 -44 -70 -87 -76 -95 -30 -38 -143 -176 -147 -180 -3 -3
-27 -32 -55 -65 -100 -121 -406 -476 -444 -516 -9 -9 -52 -56 -96 -105 -326
-361 -839 -876 -1200 -1205 -33 -30 -71 -65 -86 -79 -14 -14 -54 -50 -89 -80
-35 -30 -70 -62 -79 -70 -9 -9 -47 -43 -86 -75 -38 -33 -77 -67 -85 -75 -8 -9
-40 -35 -70 -60 -30 -25 -57 -47 -60 -51 -3 -3 -70 -59 -150 -125 -460 -382
-1021 -804 -1425 -1072 -55 -37 -102 -69 -105 -72 -3 -3 -30 -22 -60 -41 -115
-75 -297 -193 -345 -224 -220 -142 -777 -473 -965 -573 -36 -19 -86 -48 -113
-63 -26 -16 -49 -29 -51 -29 -2 0 -82 -42 -177 -93 -690 -367 -1478 -718
-2289 -1019 -228 -84 -754 -263 -955 -324 -158 -47 -524 -154 -530 -154 -3 0
-5 -371 -5 -825 0 -456 4 -825 9 -825 8 0 203 50 386 100 470 126 1102 329
1645 527 152 56 508 192 555 213 11 5 76 32 145 60 69 28 139 58 157 66 17 8
33 14 36 14 7 0 413 179 520 229 49 22 90 41 91 41 25 0 927 451 1151 575 33
18 80 44 105 58 97 52 166 91 200 110 84 47 226 129 240 137 8 5 116 70 240
143 942 560 1877 1230 2740 1963 118 100 226 193 240 206 14 13 61 54 105 93
44 38 98 86 120 106 22 21 54 50 71 66 493 450 1027 988 1428 1438 50 55 92
102 96 105 18 15 288 333 499 585 171 206 619 786 764 990 31 44 78 109 104
145 134 186 430 627 560 832 29 46 57 88 62 94 5 7 22 35 37 63 16 28 32 51
36 51 4 0 8 4 8 9 0 7 114 200 190 321 20 33 62 104 172 295 412 715 836 1574
1139 2305 28 69 57 139 64 155 15 35 108 270 160 405 49 126 182 491 205 560
11 30 33 96 50 145 174 502 378 1198 515 1760 26 105 48 198 50 208 2 10 6 26
9 35 3 9 7 28 10 42 4 21 51 236 61 280 8 35 114 573 129 655 9 50 18 100 20
111 3 12 7 39 11 60 7 49 13 84 25 154 11 63 11 66 40 255 20 135 24 162 35
243 3 20 8 51 10 67 3 17 7 53 10 80 3 28 10 79 15 115 5 36 12 92 15 125 4
33 8 69 10 80 2 11 7 49 10 85 3 36 8 79 10 95 2 17 7 59 10 95 3 36 8 88 11
115 2 28 6 73 9 100 3 28 7 75 10 105 3 30 7 84 10 120 2 36 7 97 10 135 37
484 50 846 50 1495 0 534 -8 857 -29 1175 -3 44 -8 121 -11 170 -11 175 -26
370 -40 510 -3 28 -7 73 -9 100 -6 65 -16 172 -21 210 -2 17 -7 57 -10 90 -3
33 -8 74 -10 90 -2 17 -7 53 -10 80 -6 60 -17 148 -29 235 -2 19 -7 58 -11 85
-3 28 -10 75 -15 105 -5 30 -12 80 -15 110 -4 30 -8 57 -10 60 -2 3 -6 32 -10
64 -3 33 -8 62 -10 65 -1 3 -6 29 -9 56 -3 28 -8 64 -11 80 -7 36 -22 127 -30
173 -3 17 -7 47 -10 65 -37 220 -155 804 -205 1013 -11 45 -21 90 -23 100 -2
11 -7 30 -10 44 -4 14 -29 120 -58 235 -28 116 -71 284 -96 375 -25 91 -49
181 -53 200 -38 154 -235 787 -353 1135 -101 295 -285 792 -357 965 -11 25
-54 128 -95 230 -74 179 -187 443 -225 525 -11 22 -43 94 -73 160 -114 255
-399 833 -522 1060 -20 39 -56 104 -78 145 -22 41 -63 116 -90 165 -28 50 -64
115 -80 145 -17 30 -91 159 -165 285 -74 127 -143 246 -154 265 -11 19 -26 42
-34 51 -8 8 -14 18 -14 22 0 5 -129 215 -205 332 -337 524 -561 846 -904 1305
-97 129 -183 244 -192 255 -9 11 -89 111 -178 222 -133 168 -448 550 -486 589
-5 6 -35 39 -65 75 -30 35 -77 88 -105 119 -27 31 -84 94 -125 140 -41 46 -98
109 -126 140 -29 30 -66 71 -84 90 -286 313 -971 992 -1210 1200 -13 11 -57
51 -99 89 -79 72 -221 197 -331 291 -35 30 -82 71 -104 91 -23 19 -95 80 -161
135 -66 54 -122 101 -125 104 -7 7 -281 225 -365 290 -38 30 -72 57 -75 60 -3
3 -21 17 -40 30 -19 13 -37 27 -40 30 -6 7 -280 215 -320 242 -34 24 -64 45
-227 163 -458 331 -1041 709 -1568 1017 -283 165 -400 230 -745 415 -156 84
-711 362 -880 441 -36 16 -99 46 -140 65 -342 159 -938 409 -1280 537 -47 17
-94 35 -105 40 -135 60 -1105 386 -1320 443 -11 3 -90 26 -175 52 -85 25 -162
48 -171 50 -10 2 -66 17 -125 33 -99 27 -151 41 -179 48 -5 1 -44 11 -85 23
-41 12 -80 21 -87 21 -10 0 -13 -165 -13 -825z"/>
    <path d="M15235 37584 c-202 -62 -693 -224 -839 -278 -53 -20 -138 -52 -189
-71 -154 -56 -311 -116 -332 -125 -11 -5 -72 -30 -135 -56 -122 -49 -278 -114
-347 -145 -23 -10 -45 -19 -48 -19 -3 0 -36 -14 -73 -31 -37 -17 -83 -38 -102
-46 -335 -147 -847 -398 -1270 -626 -59 -31 -538 -304 -618 -352 -421 -250
-932 -587 -1324 -871 -274 -199 -706 -530 -848 -650 -14 -12 -99 -84 -190
-160 -91 -76 -178 -150 -195 -165 -114 -100 -285 -252 -314 -279 -208 -192
-300 -279 -430 -405 -156 -152 -435 -433 -511 -515 -23 -25 -70 -75 -104 -111
-177 -189 -273 -296 -515 -574 -14 -16 -49 -57 -76 -90 -28 -33 -53 -62 -56
-65 -3 -3 -54 -66 -114 -140 -60 -74 -112 -137 -115 -140 -3 -3 -30 -36 -60
-75 -30 -38 -57 -72 -60 -75 -3 -3 -34 -43 -70 -90 -35 -47 -68 -89 -72 -95
-52 -66 -67 -89 -63 -94 8 -7 315 -9 336 -2 9 4 67 69 128 146 281 353 593
720 836 981 5 6 57 62 115 125 119 129 636 648 781 784 53 50 138 128 189 175
51 47 98 90 104 95 26 25 337 295 396 345 36 30 70 60 76 65 6 6 30 26 54 45
24 19 97 79 162 132 658 539 1455 1090 2218 1535 135 79 209 121 455 258 157
87 758 393 900 457 44 20 125 58 180 83 136 63 137 64 330 148 94 40 213 91
265 112 52 21 99 42 105 47 5 4 15 8 22 8 7 0 32 9 56 20 44 20 227 92 357
140 41 15 125 45 185 68 253 93 568 199 874 293 l141 43 0 148 c0 81 -3 148
-7 147 -5 0 -89 -25 -188 -55z"/>
    <path d="M25470 37492 l0 -148 112 -34 c61 -19 116 -35 122 -36 23 -5 470
-155 636 -214 492 -175 980 -372 1450 -587 192 -88 785 -380 925 -456 44 -24
139 -75 210 -114 638 -346 1381 -823 2030 -1302 94 -69 172 -128 175 -131 3
-3 23 -19 45 -36 46 -34 37 -27 185 -144 63 -50 128 -101 144 -113 16 -12 34
-27 40 -32 6 -6 60 -51 121 -100 191 -157 441 -373 635 -550 36 -33 85 -78
109 -100 188 -171 673 -650 851 -841 139 -148 340 -368 396 -433 16 -19 34
-39 39 -45 6 -6 37 -42 70 -81 33 -38 65 -74 71 -80 20 -18 299 -358 419 -510
65 -82 122 -154 126 -159 10 -11 359 -15 359 -5 0 24 -691 878 -804 995 -6 6
-34 37 -63 70 -28 32 -62 71 -75 85 -192 212 -217 238 -386 418 -215 228 -615
619 -906 886 -128 118 -393 348 -556 484 -74 62 -146 122 -159 133 -145 122
-758 593 -857 658 -12 8 -73 52 -136 96 -143 103 -232 164 -383 264 -66 44
-124 83 -130 88 -12 10 -374 241 -412 263 -16 9 -80 48 -143 86 -191 116 -426
254 -475 279 -16 8 -46 24 -65 35 -36 22 -210 117 -390 213 -325 174 -950 472
-1315 626 -55 23 -113 48 -130 55 -133 57 -337 138 -545 217 -30 11 -64 25
-75 29 -149 65 -1216 419 -1260 419 -3 0 -5 -67 -5 -148z"/>
    <path d="M15400 36699 c-14 -5 -140 -47 -281 -94 -602 -197 -1269 -460 -1814
-715 -49 -23 -119 -56 -155 -72 -86 -39 -540 -267 -638 -319 -80 -44 -251
-137 -337 -184 -60 -33 -293 -166 -316 -180 -9 -5 -32 -19 -50 -29 -126 -71
-489 -299 -736 -462 -244 -162 -646 -440 -690 -478 -7 -6 -37 -29 -68 -51 -62
-44 -454 -347 -525 -404 -102 -83 -335 -276 -340 -281 -3 -3 -52 -45 -110 -94
-58 -50 -112 -97 -121 -105 -9 -9 -44 -41 -79 -71 -35 -30 -68 -60 -74 -65 -6
-6 -67 -62 -136 -125 -292 -267 -696 -671 -1007 -1006 -16 -17 -60 -67 -98
-110 -39 -43 -77 -85 -85 -94 -79 -83 -440 -510 -440 -519 0 -3 77 -6 171 -6
l171 1 130 149 c72 83 160 183 197 224 36 41 74 83 84 94 144 166 635 668 852
872 28 26 82 77 120 114 39 36 113 104 165 151 52 47 101 92 110 100 54 51
414 358 515 440 44 36 82 68 85 71 3 3 70 57 150 119 80 63 150 118 155 123
44 35 270 204 341 256 49 35 107 77 129 93 183 134 594 412 795 538 47 29 103
65 125 79 86 56 320 195 510 304 182 104 253 144 470 262 108 59 577 295 695
349 58 27 151 71 208 98 57 26 105 48 107 48 2 0 36 15 77 34 209 96 737 311
973 396 50 18 99 36 110 40 60 25 178 65 418 145 l267 88 0 144 c0 79 -1 143
-2 142 -2 -1 -14 -5 -28 -10z"/>
    <path d="M25470 36566 l0 -141 293 -99 c160 -54 326 -111 367 -126 202 -74
472 -176 515 -195 17 -7 66 -27 110 -45 112 -45 328 -137 403 -171 35 -16 66
-29 68 -29 3 0 35 -14 72 -31 37 -17 126 -58 197 -91 435 -201 977 -484 1385
-723 63 -37 129 -75 145 -85 359 -205 1018 -647 1475 -990 276 -208 376 -287
650 -514 244 -203 253 -210 264 -222 6 -6 54 -48 106 -94 52 -46 109 -96 125
-111 17 -15 41 -38 55 -49 23 -20 193 -178 294 -273 221 -209 601 -598 852
-873 59 -65 242 -273 323 -366 46 -54 87 -98 90 -99 23 -4 341 -3 341 1 0 15
-291 354 -570 665 -263 293 -750 783 -1049 1055 -51 47 -98 90 -105 95 -94 87
-177 160 -272 242 -62 53 -139 119 -148 128 -53 49 -488 400 -626 505 -40 30
-77 60 -84 65 -15 14 -362 268 -451 330 -38 27 -72 52 -75 55 -9 10 -436 295
-585 392 -347 224 -778 476 -1229 718 -103 55 -565 286 -681 340 -735 344
-1369 593 -2147 843 l-108 35 0 -142z"/>
    <path d="M15300 35724 c-69 -24 -165 -58 -215 -75 -310 -108 -813 -307 -1100
-434 -322 -143 -420 -189 -745 -352 -390 -195 -474 -240 -820 -438 -434 -248
-954 -582 -1345 -863 -118 -85 -469 -345 -475 -352 -3 -3 -34 -28 -70 -55 -36
-28 -67 -52 -70 -55 -3 -3 -25 -21 -50 -40 -25 -19 -50 -39 -56 -45 -6 -5 -28
-23 -49 -40 -69 -55 -170 -137 -175 -144 -3 -3 -45 -40 -95 -81 -94 -78 -205
-174 -339 -294 -43 -39 -87 -78 -96 -86 -165 -144 -741 -714 -932 -920 -58
-63 -124 -135 -147 -159 -22 -24 -39 -47 -37 -50 2 -3 79 -6 170 -5 l166 0
117 125 c228 240 619 623 843 825 30 27 57 51 60 54 3 3 46 41 95 85 50 43 92
81 95 85 18 21 312 265 500 415 468 375 923 700 1460 1043 186 118 619 372
875 512 33 18 80 44 105 58 25 14 171 89 325 166 416 211 813 391 1215 552
102 41 193 79 202 84 10 6 25 10 34 10 9 0 28 6 42 14 44 24 546 204 615 221
l27 7 0 139 c0 76 -1 139 -2 138 -2 -1 -59 -21 -128 -45z"/>
    <path d="M25470 35632 l0 -137 133 -44 c215 -72 391 -138 707 -263 124 -49
250 -100 280 -113 30 -13 125 -54 210 -91 85 -37 197 -86 248 -110 52 -24 96
-44 98 -44 8 0 556 -273 694 -345 772 -408 1536 -895 2210 -1409 113 -86 492
-386 500 -395 3 -4 30 -26 60 -51 51 -41 251 -211 276 -235 10 -9 135 -121
174 -155 232 -204 624 -586 898 -875 l123 -129 173 -1 c190 0 181 -4 126 55
-14 14 -79 84 -144 155 -203 220 -778 788 -936 925 -14 12 -43 38 -65 58 -22
21 -76 69 -120 107 -44 39 -89 78 -100 88 -11 10 -37 33 -58 50 -21 18 -49 41
-61 52 -111 102 -494 407 -761 607 -115 87 -214 161 -220 166 -5 4 -32 23 -60
42 -27 19 -54 38 -60 43 -79 68 -856 577 -1045 685 -19 11 -81 47 -138 81 -56
33 -105 61 -108 61 -3 0 -18 8 -32 19 -107 74 -829 452 -1107 580 -50 23 -98
46 -108 52 -39 22 -483 216 -677 296 -181 74 -642 252 -710 273 -14 5 -109 38
-212 73 l-188 66 0 -137z"/>
    <path d="M15175 34730 c-132 -50 -247 -93 -255 -97 -8 -3 -19 -7 -25 -9 -12
-3 -377 -153 -460 -189 -190 -83 -455 -205 -650 -299 -132 -65 -242 -117 -245
-118 -3 0 -16 -8 -30 -18 -14 -10 -50 -29 -80 -43 -183 -86 -704 -384 -1035
-590 -142 -89 -554 -358 -580 -379 -5 -5 -82 -59 -170 -121 -159 -112 -516
-377 -586 -435 -8 -7 -44 -35 -80 -64 -36 -29 -85 -69 -109 -88 -77 -62 -284
-233 -315 -261 -16 -15 -55 -48 -85 -74 -30 -26 -85 -75 -122 -107 -37 -33
-78 -69 -90 -80 -13 -11 -70 -63 -127 -116 -57 -53 -118 -110 -135 -126 -117
-108 -281 -276 -272 -279 6 -2 84 -3 172 -2 l161 1 39 40 c38 38 249 234 328
304 21 19 44 40 50 46 33 31 267 233 371 320 435 363 939 737 1397 1034 101
65 188 123 193 127 6 4 24 16 40 26 17 9 94 57 173 105 79 48 158 95 175 106
18 10 73 42 122 71 324 189 886 482 1180 615 28 12 77 35 110 50 33 15 80 37
105 48 236 107 691 291 943 382 l147 53 0 129 c0 70 -3 128 -7 128 -5 -1 -116
-41 -248 -90z"/>
    <path d="M25470 34693 l0 -128 78 -28 c222 -82 541 -205 587 -227 11 -5 94
-40 185 -78 330 -140 853 -388 1115 -530 50 -26 134 -72 187 -100 305 -163
791 -457 1140 -689 256 -171 624 -435 816 -584 87 -68 457 -364 487 -390 17
-15 102 -88 190 -164 188 -163 317 -279 499 -452 48 -46 92 -83 99 -84 56 -5
327 -3 327 3 0 3 -6 13 -14 20 -364 352 -383 370 -561 528 -196 174 -225 200
-280 245 -26 22 -53 45 -59 50 -251 227 -1120 879 -1422 1065 -13 8 -76 49
-139 90 -328 214 -707 436 -1100 647 -167 90 -711 357 -870 428 -82 37 -170
76 -195 87 -206 92 -737 305 -870 348 -14 5 -63 22 -110 39 -47 17 -86 31 -87
31 -2 0 -3 -57 -3 -127z"/>
    <path d="M15335 33834 c-49 -19 -103 -41 -120 -48 -16 -8 -41 -17 -55 -21 -22
-7 -234 -94 -315 -130 -16 -7 -84 -37 -150 -65 -464 -201 -1036 -492 -1490
-760 -250 -147 -716 -438 -735 -460 -3 -3 -39 -27 -80 -55 -102 -69 -371 -260
-510 -363 -108 -81 -479 -369 -490 -382 -3 -3 -45 -39 -95 -80 -148 -122 -265
-224 -265 -230 0 -3 76 -5 169 -4 l169 0 43 35 c24 18 49 39 54 45 15 17 335
270 475 375 720 544 1480 1012 2270 1401 118 58 238 116 265 128 28 13 93 43
145 67 52 25 185 83 295 129 110 47 214 91 230 98 17 8 87 36 158 62 l127 49
0 122 c0 68 -1 123 -2 122 -2 0 -43 -16 -93 -35z"/>
    <path d="M25470 33747 l0 -122 128 -49 c128 -49 546 -226 677 -286 273 -126
631 -302 830 -410 329 -178 633 -356 960 -563 225 -143 574 -386 840 -585 162
-122 512 -396 525 -412 3 -3 27 -23 53 -45 l49 -39 169 -1 c93 0 169 2 169 6
0 9 -229 203 -450 380 -358 287 -643 496 -1020 746 -135 90 -250 168 -257 173
-7 6 -14 10 -17 10 -6 0 -138 82 -146 90 -3 3 -16 12 -30 19 -14 8 -106 63
-205 121 -702 415 -1483 792 -2207 1064 l-68 25 0 -122z"/>
    <path d="M15265 32841 c-413 -173 -1069 -490 -1315 -636 -14 -8 -65 -38 -115
-65 -49 -28 -97 -55 -105 -60 -18 -11 -346 -208 -375 -224 -106 -62 -568 -372
-735 -493 -199 -144 -198 -128 -3 -127 92 1 175 2 183 3 9 0 87 51 173 111 87
61 160 110 163 110 2 0 26 15 52 33 116 82 509 323 732 449 268 153 751 402
955 493 22 10 77 35 123 57 45 21 84 38 86 38 3 0 33 13 68 29 35 16 108 48
163 71 55 23 104 45 108 49 4 4 6 57 5 118 l-3 110 -160 -66z"/>
    <path d="M25470 32792 l0 -117 63 -24 c261 -101 971 -441 1268 -608 30 -17 81
-45 114 -63 83 -46 389 -226 450 -265 45 -29 168 -106 220 -138 40 -25 380
-251 385 -257 3 -3 31 -23 64 -45 l58 -39 167 -1 c91 -1 172 1 178 3 40 13
-966 680 -1292 857 -11 6 -81 45 -155 87 -74 41 -175 97 -225 123 -146 79
-653 330 -685 340 -7 2 -100 45 -130 60 -27 14 -238 104 -387 166 l-93 38 0
-117z"/>
    <path d="M15195 31831 c-207 -96 -335 -160 -605 -298 -47 -25 -92 -48 -100
-53 -8 -5 -106 -61 -218 -123 -126 -72 -196 -116 -185 -119 10 -2 99 -3 198
-2 l180 1 175 94 c161 87 440 227 585 294 33 15 93 43 133 61 l72 34 0 110 c0
60 -1 110 -2 109 -2 0 -106 -48 -233 -108z"/>
    <path d="M25472 31828 l3 -110 135 -63 c239 -110 575 -279 775 -390 49 -27 53
-28 240 -29 105 -1 194 0 199 2 9 5 4 7 -254 151 -91 50 -172 96 -180 101 -40
26 -662 333 -783 387 l-138 62 3 -111z"/>
    <path d="M5065 29618 c-33 -56 -71 -119 -84 -142 -13 -23 -40 -70 -61 -106
-82 -142 -179 -318 -319 -580 -48 -89 -289 -572 -351 -705 -177 -373 -384
-859 -516 -1210 -19 -49 -39 -99 -44 -110 -34 -73 -257 -725 -349 -1020 -74
-239 -229 -792 -266 -953 -2 -10 -21 -84 -40 -167 -44 -182 -36 -146 -80 -345
-34 -159 -80 -378 -89 -430 -2 -14 -13 -74 -25 -135 -11 -60 -23 -123 -26
-140 -9 -55 -34 -199 -39 -235 -27 -168 -47 -301 -51 -330 -3 -19 -10 -62 -15
-95 -9 -61 -15 -113 -25 -195 -3 -25 -7 -61 -10 -80 -6 -43 -15 -122 -40 -345
-2 -22 -7 -71 -10 -110 -4 -38 -8 -86 -10 -105 -2 -19 -7 -66 -10 -105 -3 -38
-7 -95 -10 -125 -15 -175 -26 -378 -42 -730 -15 -339 -8 -1268 12 -1610 7
-123 16 -261 20 -325 3 -33 7 -94 10 -135 3 -41 8 -93 10 -115 2 -22 7 -71 10
-110 3 -38 7 -90 10 -115 13 -126 17 -168 20 -195 2 -16 11 -93 20 -170 9 -77
18 -149 20 -160 1 -11 5 -45 9 -75 6 -47 22 -163 42 -300 2 -19 11 -73 19
-120 8 -47 17 -105 20 -130 3 -25 8 -52 10 -60 2 -8 6 -31 9 -50 15 -97 55
-316 77 -425 12 -55 23 -111 25 -125 11 -62 76 -368 84 -395 5 -16 12 -43 14
-60 3 -16 26 -113 52 -215 25 -102 47 -192 49 -200 7 -35 80 -307 121 -454 98
-353 300 -973 436 -1336 76 -205 235 -611 264 -675 7 -16 51 -118 98 -225 266
-615 540 -1166 863 -1734 40 -71 73 -133 73 -137 0 -5 5 -9 10 -9 6 0 10 -5
10 -10 0 -6 46 -85 101 -178 56 -92 109 -180 119 -197 64 -112 406 -636 538
-825 165 -236 464 -644 531 -726 14 -18 36 -45 48 -60 166 -221 698 -860 803
-964 8 -8 37 -40 64 -70 300 -334 733 -773 1092 -1105 65 -60 128 -119 139
-130 12 -11 75 -67 141 -125 65 -58 121 -107 124 -111 16 -18 352 -300 480
-403 52 -42 113 -91 134 -109 59 -49 141 -111 371 -285 597 -451 994 -716
1755 -1172 220 -132 614 -346 946 -515 178 -91 707 -345 718 -345 2 0 44 -18
93 -40 48 -23 97 -45 108 -49 11 -5 41 -18 66 -29 86 -38 404 -169 524 -216
66 -26 129 -51 140 -56 102 -46 802 -291 1060 -371 151 -46 358 -109 362 -109
2 0 3 67 3 148 l0 149 -142 43 c-902 273 -1809 636 -2693 1076 -387 193 -386
193 -705 370 -254 142 -243 135 -440 253 -80 47 -153 90 -162 96 -91 54 -352
219 -535 339 -133 87 -556 377 -563 385 -3 4 -52 40 -110 81 -58 41 -107 77
-110 80 -3 3 -41 32 -85 64 -173 129 -536 414 -690 544 -11 9 -47 40 -80 67
-96 80 -297 254 -368 318 -18 16 -61 54 -96 85 -35 32 -81 73 -101 92 -21 19
-93 87 -161 150 -140 130 -630 618 -759 756 -261 279 -478 523 -674 759 -60
72 -118 141 -130 155 -12 14 -48 59 -81 100 -32 41 -61 77 -64 80 -4 3 -22 25
-41 50 -19 25 -40 52 -47 60 -90 114 -285 371 -347 458 -17 24 -41 55 -52 70
-77 98 -460 660 -615 904 -110 173 -264 427 -368 608 -62 107 -116 202 -121
210 -5 8 -44 78 -86 155 -42 77 -88 160 -102 185 -110 197 -433 859 -549 1124
-24 56 -48 110 -53 121 -66 141 -235 558 -335 825 -42 113 -80 214 -85 225
-25 56 -213 623 -299 900 -38 125 -146 502 -165 581 -8 33 -19 75 -25 94 -6
19 -12 46 -15 60 -2 14 -15 66 -29 115 -13 50 -24 92 -25 95 -1 6 -5 28 -41
180 -49 208 -144 671 -167 810 -3 14 -13 72 -24 130 -10 58 -21 121 -24 140
-3 19 -8 46 -10 60 -3 14 -7 43 -11 65 -8 52 -43 288 -50 340 -3 22 -8 51 -10
65 -3 14 -7 45 -10 70 -4 46 -12 108 -20 170 -3 19 -7 55 -10 80 -2 25 -7 61
-10 80 -3 19 -7 62 -10 95 -5 62 -12 140 -20 210 -3 22 -7 72 -10 110 -4 39
-8 93 -11 120 -6 77 -15 193 -19 265 -2 36 -6 103 -9 150 -7 103 -15 267 -22
460 -7 196 -7 940 1 1120 12 287 14 337 20 445 3 61 8 135 10 165 3 30 7 93
10 140 3 47 8 103 10 125 2 22 7 76 10 120 3 44 8 96 10 115 2 19 7 67 10 105
3 39 8 81 10 95 2 14 7 50 10 80 3 30 8 71 10 90 3 19 7 60 11 90 10 94 11
101 33 265 12 88 28 198 36 245 8 47 17 105 20 130 3 25 7 56 10 70 3 14 7 39
10 55 3 17 7 41 10 55 3 14 10 52 15 85 20 121 70 384 99 520 79 372 96 448
157 690 110 442 247 920 350 1222 14 40 27 81 29 90 4 19 95 281 163 468 49
136 134 359 200 525 86 216 235 562 338 788 13 28 36 78 50 110 68 148 321
655 403 805 50 93 91 171 91 173 0 2 20 38 45 80 25 41 45 77 45 79 0 2 16 32
36 67 l36 63 0 273 c0 150 -1 275 -3 277 -2 2 -31 -42 -64 -97z"/>
    <path d="M35769 29715 c0 -5 -1 -132 -1 -280 0 -257 1 -272 21 -305 11 -19 24
-42 28 -50 4 -8 22 -42 41 -75 190 -336 469 -893 666 -1328 42 -93 76 -170 76
-172 0 -3 11 -28 24 -57 36 -77 178 -422 216 -523 4 -11 12 -31 18 -45 115
-259 447 -1246 558 -1659 8 -29 25 -92 39 -140 22 -79 103 -396 110 -431 2 -8
10 -42 19 -75 16 -65 105 -454 112 -495 3 -14 20 -101 39 -195 33 -161 67
-348 79 -425 3 -19 11 -62 16 -95 13 -70 46 -278 60 -380 6 -38 13 -88 16
-110 3 -22 8 -53 10 -68 2 -15 6 -44 8 -65 6 -43 12 -93 21 -175 4 -32 8 -67
10 -78 2 -11 7 -55 10 -97 4 -42 8 -79 10 -82 2 -3 6 -44 10 -90 3 -47 8 -101
10 -120 8 -66 21 -217 30 -345 3 -49 8 -112 10 -140 22 -280 38 -772 38 -1160
0 -241 -9 -690 -18 -825 -2 -36 -6 -117 -9 -180 -4 -63 -8 -142 -11 -175 -6
-74 -13 -164 -20 -270 -3 -44 -8 -96 -10 -115 -3 -19 -7 -64 -10 -100 -7 -87
-14 -158 -20 -200 -2 -19 -7 -64 -10 -100 -3 -36 -8 -72 -10 -80 -2 -8 -7 -44
-10 -80 -3 -36 -7 -76 -10 -90 -2 -14 -6 -45 -9 -70 -3 -25 -8 -61 -11 -80 -2
-19 -7 -55 -10 -80 -3 -25 -8 -52 -10 -60 -2 -8 -6 -40 -10 -70 -6 -59 -13
-106 -20 -130 -2 -8 -7 -37 -10 -65 -3 -27 -9 -63 -12 -80 -3 -16 -7 -39 -9
-50 -6 -46 -15 -101 -19 -115 -3 -8 -7 -33 -10 -55 -7 -45 -8 -54 -71 -370
-25 -126 -47 -241 -50 -255 -6 -30 -48 -213 -76 -330 -11 -47 -21 -93 -24
-103 -2 -10 -6 -27 -9 -37 -3 -10 -8 -29 -10 -42 -16 -83 -173 -663 -229 -843
-13 -44 -43 -141 -65 -215 -23 -74 -44 -142 -48 -150 -3 -8 -7 -19 -8 -25 -11
-42 -195 -577 -224 -645 -5 -14 -25 -68 -44 -120 -49 -132 -164 -426 -187
-477 -11 -24 -20 -45 -20 -47 0 -6 -174 -412 -210 -491 -12 -27 -43 -93 -67
-145 -24 -52 -65 -140 -91 -195 -25 -55 -99 -206 -164 -335 -110 -219 -163
-322 -265 -510 -97 -179 -121 -223 -201 -360 -46 -80 -96 -165 -110 -190 -131
-231 -597 -958 -704 -1100 -10 -14 -85 -117 -165 -230 -118 -166 -385 -524
-440 -590 -7 -8 -63 -78 -124 -155 -167 -209 -411 -499 -573 -680 -45 -49 -97
-107 -116 -129 -19 -22 -51 -56 -70 -77 -19 -21 -82 -89 -140 -151 -126 -135
-590 -601 -746 -748 -537 -507 -1214 -1068 -1749 -1451 -49 -35 -95 -68 -102
-74 -6 -5 -41 -30 -78 -55 -37 -25 -79 -54 -93 -66 -45 -36 -496 -334 -697
-461 -270 -170 -734 -442 -990 -579 -49 -26 -126 -68 -170 -91 -84 -46 -661
-333 -755 -376 -245 -112 -329 -150 -425 -192 -60 -26 -123 -53 -140 -60 -391
-175 -1325 -515 -1772 -645 l-113 -33 0 -149 c0 -81 2 -148 4 -148 2 0 85 25
183 55 98 31 187 58 198 60 63 14 788 266 910 316 11 4 90 35 175 67 763 293
1624 703 2395 1142 99 57 204 118 233 136 29 19 55 34 58 34 3 0 26 14 51 30
24 17 46 30 48 30 3 0 215 130 245 150 50 34 122 80 126 80 8 0 496 327 649
435 337 237 892 659 1070 813 11 10 74 62 140 117 66 55 125 105 131 110 6 6
40 35 75 65 89 77 333 294 398 355 78 72 196 182 255 238 119 113 463 458 598
599 156 164 172 181 288 309 41 45 80 87 85 93 6 6 74 83 151 171 1013 1160
1882 2461 2564 3840 113 230 270 560 270 570 0 2 17 41 39 87 21 46 64 144 95
218 32 74 63 149 71 165 80 177 311 788 438 1160 59 172 213 661 222 703 2 9
17 62 33 117 46 156 145 526 157 584 2 9 11 45 20 81 9 36 18 72 20 80 2 8 9
38 15 65 6 28 14 61 16 75 3 14 7 31 10 39 4 14 37 156 48 211 2 14 21 104 41
200 20 96 39 184 41 195 1 11 6 34 9 50 3 17 14 82 26 145 11 63 22 126 25
140 2 14 7 41 10 60 2 19 7 46 10 60 5 28 6 35 28 170 18 114 22 142 42 285 8
61 17 121 19 135 2 14 7 50 10 80 3 30 8 66 10 80 2 14 7 50 10 80 7 64 14
132 20 175 2 17 6 62 10 100 3 39 8 84 10 100 2 17 7 66 10 110 3 44 8 91 10
105 2 14 7 70 11 125 3 55 7 116 9 135 2 19 7 91 10 160 4 69 9 145 10 170 27
385 26 1523 0 1875 -2 28 -6 95 -9 150 -3 55 -7 125 -10 155 -3 30 -8 91 -11
135 -6 77 -10 127 -20 243 -3 28 -7 78 -10 110 -3 31 -7 75 -10 97 -2 22 -7
63 -10 90 -3 28 -7 68 -10 90 -3 22 -7 63 -10 90 -3 28 -8 64 -10 80 -6 45
-26 204 -31 250 -3 22 -9 65 -14 95 -5 30 -12 75 -15 100 -3 25 -10 70 -15
100 -5 30 -12 71 -15 90 -3 19 -7 46 -10 60 -2 14 -7 43 -10 65 -3 23 -8 52
-10 65 -3 14 -8 41 -11 60 -4 29 -20 112 -29 155 -1 6 -5 33 -9 60 -5 28 -14
77 -21 110 -8 33 -16 76 -19 95 -3 19 -19 98 -36 175 -17 77 -35 160 -40 185
-15 72 -16 77 -54 240 -29 122 -117 473 -141 560 -2 8 -13 49 -24 90 -11 41
-45 161 -76 265 -31 105 -57 197 -60 205 -42 151 -228 705 -331 985 -4 11 -8
22 -9 25 -1 3 -5 12 -8 20 -3 8 -31 80 -61 160 -47 126 -129 334 -155 395 -5
11 -21 49 -36 85 -15 36 -33 79 -40 95 -8 17 -34 80 -60 140 -26 61 -60 138
-76 173 -16 35 -29 65 -29 67 0 3 -62 137 -163 350 -69 145 -281 567 -347 690
-137 255 -177 327 -302 545 -132 229 -198 337 -199 325z"/>
    <path d="M35770 27835 c-1 -11 -2 -157 -2 -325 l0 -305 42 -95 c57 -127 112
-259 171 -410 27 -69 54 -134 59 -145 29 -60 196 -521 285 -790 114 -339 250
-790 301 -995 2 -8 22 -85 44 -170 75 -292 198 -845 241 -1087 5 -29 14 -79
19 -110 6 -32 13 -73 16 -92 3 -18 8 -43 10 -55 2 -11 9 -50 14 -86 5 -36 11
-74 14 -85 2 -11 6 -41 10 -66 4 -25 8 -57 11 -70 28 -177 69 -490 90 -699 3
-25 7 -65 10 -90 3 -25 8 -68 10 -97 2 -29 6 -69 9 -90 3 -21 8 -76 11 -123 3
-47 8 -110 10 -140 11 -130 20 -298 30 -510 4 -85 9 -184 10 -220 5 -94 5
-937 0 -1055 -7 -191 -16 -380 -20 -440 -3 -33 -7 -105 -10 -160 -3 -55 -7
-120 -10 -145 -2 -25 -7 -76 -10 -115 -3 -38 -7 -90 -10 -115 -3 -25 -7 -71
-10 -102 -13 -144 -16 -178 -25 -248 -5 -41 -12 -100 -15 -130 -7 -65 -34
-274 -40 -310 -2 -14 -6 -47 -10 -75 -9 -76 -16 -118 -20 -135 -2 -8 -7 -37
-11 -65 -7 -57 -37 -237 -89 -525 -3 -19 -15 -78 -26 -130 -11 -52 -22 -110
-25 -129 -7 -43 -5 -31 -58 -271 -26 -113 -49 -216 -52 -230 -2 -14 -25 -106
-50 -205 -25 -99 -47 -189 -50 -199 -2 -10 -8 -33 -14 -51 -6 -18 -12 -41 -15
-51 -14 -65 -103 -374 -161 -564 -42 -135 -221 -676 -233 -705 -5 -11 -17 -42
-26 -70 -31 -88 -196 -519 -211 -549 -8 -16 -14 -33 -14 -38 0 -4 -11 -31 -25
-60 -14 -28 -25 -55 -25 -60 0 -5 -9 -27 -19 -51 -11 -23 -49 -110 -85 -193
-35 -84 -90 -207 -121 -275 -32 -68 -68 -149 -82 -179 -101 -221 -375 -758
-510 -1000 -14 -25 -48 -85 -75 -135 -28 -49 -102 -178 -166 -285 -64 -107
-122 -204 -128 -215 -58 -105 -445 -693 -605 -920 -225 -319 -573 -771 -823
-1070 -116 -139 -343 -403 -366 -425 -8 -8 -35 -37 -59 -65 -211 -238 -660
-699 -912 -936 -63 -60 -248 -230 -269 -249 -9 -8 -53 -47 -96 -86 -309 -279
-722 -617 -1089 -893 -38 -29 -78 -59 -87 -66 -9 -8 -122 -89 -250 -181 -327
-234 -752 -513 -1098 -721 -90 -55 -568 -328 -670 -383 -139 -76 -680 -350
-805 -407 -49 -23 -130 -60 -180 -83 -302 -140 -841 -363 -1120 -465 -152 -55
-159 -58 -205 -77 -19 -8 -169 -59 -332 -113 l-298 -99 0 -142 0 -142 123 40
c334 106 677 227 1017 358 74 28 149 58 165 65 17 7 91 38 165 68 424 173
1162 519 1472 690 35 19 88 48 118 64 178 96 217 118 233 131 9 8 17 12 17 9
0 -4 25 9 55 28 30 19 56 35 59 35 3 0 52 28 108 61 57 34 117 70 133 79 322
184 925 581 1320 869 338 246 805 614 1015 798 28 24 40 35 126 108 86 74 168
146 179 159 6 6 28 26 50 45 229 195 756 712 1100 1082 78 83 212 230 245 269
12 14 36 41 53 60 18 19 70 80 117 135 47 55 89 105 95 111 13 14 62 73 190
229 118 144 109 133 185 230 30 39 57 72 60 75 3 3 25 32 50 65 24 33 50 66
57 75 22 26 226 302 277 375 28 39 52 72 55 75 3 3 11 12 16 21 6 10 50 74 99
144 375 538 782 1206 1074 1765 48 91 266 522 269 530 1 3 28 61 61 130 49
103 148 324 277 615 12 28 66 160 120 295 53 135 103 259 110 275 7 17 33 86
58 155 25 69 63 170 83 225 112 306 295 893 398 1277 69 257 184 725 201 823
2 11 24 119 50 240 25 121 59 299 76 395 16 96 32 186 34 200 4 22 15 89 30
180 2 14 6 45 10 70 3 25 8 56 10 70 2 14 7 45 10 70 4 25 8 56 10 70 4 24 9
64 20 148 4 34 8 62 20 160 2 20 7 62 10 92 3 30 8 69 10 85 2 17 7 62 10 100
4 39 8 77 10 85 1 8 6 62 10 120 4 58 8 112 10 120 2 8 6 62 10 120 4 58 8
121 10 141 2 19 7 91 10 160 4 68 8 149 10 179 22 386 22 1137 0 1620 -6 124
-15 285 -20 345 -10 117 -17 211 -20 260 -4 62 -15 180 -20 220 -2 17 -7 60
-10 95 -5 66 -14 145 -20 190 -2 14 -7 52 -10 85 -3 33 -8 71 -10 85 -2 14 -6
45 -9 70 -5 44 -12 96 -21 155 -2 17 -7 53 -10 80 -4 28 -8 57 -10 65 -2 8 -7
38 -10 65 -4 28 -19 129 -35 225 -16 96 -32 192 -36 214 -3 21 -8 48 -10 60
-2 11 -7 35 -10 51 -51 287 -164 799 -259 1175 -220 870 -593 1929 -970 2755
-35 77 -86 188 -127 275 -25 52 -48 102 -51 110 -4 11 -6 10 -7 -5z"/>
    <path d="M5080 27748 c-24 -51 -72 -156 -107 -233 -35 -77 -73 -159 -84 -183
-40 -87 -236 -558 -249 -597 -7 -22 -16 -44 -19 -50 -4 -5 -20 -44 -35 -85
-15 -41 -31 -84 -36 -95 -81 -191 -307 -861 -419 -1240 -73 -250 -228 -834
-255 -966 -3 -13 -7 -33 -10 -44 -14 -61 -105 -495 -110 -520 -2 -16 -11 -64
-20 -105 -21 -105 -22 -111 -60 -340 -40 -238 -72 -444 -81 -515 -3 -27 -10
-79 -15 -115 -9 -64 -14 -104 -25 -205 -3 -27 -7 -66 -10 -85 -2 -19 -7 -62
-10 -95 -7 -67 -12 -111 -19 -170 -3 -22 -8 -76 -11 -120 -3 -44 -8 -96 -10
-115 -2 -19 -7 -80 -11 -135 -4 -55 -8 -116 -10 -135 -1 -19 -5 -93 -9 -165
-4 -71 -9 -152 -10 -180 -23 -376 -23 -1213 0 -1615 2 -36 6 -117 10 -180 7
-128 11 -191 20 -295 3 -38 8 -97 11 -130 4 -57 8 -102 19 -225 5 -57 13 -133
20 -185 2 -16 6 -59 10 -95 3 -36 8 -76 10 -90 2 -14 7 -51 10 -83 4 -32 8
-66 10 -75 1 -9 6 -46 10 -82 4 -36 9 -74 11 -85 2 -11 7 -40 10 -65 3 -25 7
-52 9 -60 2 -8 7 -40 10 -70 3 -30 10 -77 16 -105 5 -27 23 -131 39 -230 16
-99 32 -191 35 -205 2 -14 12 -63 21 -110 17 -88 62 -314 68 -340 2 -8 16 -71
30 -140 15 -69 32 -143 37 -165 6 -22 13 -47 14 -55 16 -74 84 -348 121 -485
25 -93 51 -192 59 -220 79 -298 267 -878 411 -1273 41 -114 79 -216 84 -227 5
-11 18 -42 29 -70 87 -223 201 -502 236 -580 7 -16 41 -93 75 -170 178 -403
447 -944 641 -1292 10 -18 35 -63 56 -100 42 -77 174 -306 249 -431 27 -46 57
-97 67 -113 92 -158 482 -756 589 -904 255 -354 328 -452 421 -575 131 -172
359 -457 471 -590 88 -104 257 -302 266 -310 3 -3 39 -43 80 -90 268 -304 681
-730 991 -1025 362 -343 731 -663 1104 -960 83 -66 152 -122 155 -125 12 -14
530 -397 666 -492 83 -59 254 -175 380 -258 126 -84 241 -161 256 -171 15 -10
29 -19 32 -19 3 0 49 -28 103 -63 186 -121 782 -470 868 -508 11 -5 38 -20 60
-32 135 -77 650 -339 825 -420 41 -19 107 -49 145 -67 39 -17 97 -44 130 -60
153 -72 576 -248 850 -356 245 -95 682 -250 915 -323 91 -29 175 -56 188 -61
l22 -10 0 144 0 144 -32 11 c-170 52 -519 170 -591 200 -16 6 -31 11 -35 11
-7 0 -295 106 -327 120 -11 5 -90 37 -175 71 -180 71 -559 230 -675 284 -44
21 -125 57 -180 82 -121 54 -662 322 -795 394 -52 28 -144 78 -205 111 -60 34
-128 71 -150 82 -136 74 -481 279 -733 435 -180 113 -553 362 -783 525 -174
123 -583 429 -675 505 -17 14 -40 33 -50 41 -55 43 -234 188 -264 214 -20 17
-60 51 -90 76 -92 77 -372 319 -440 382 -219 201 -296 274 -389 363 -119 115
-456 454 -531 535 -29 30 -73 78 -99 105 -26 28 -76 82 -111 120 -35 39 -82
90 -104 115 -316 346 -762 896 -1063 1312 -46 62 -86 118 -91 123 -66 85 -403
585 -542 805 -184 293 -406 670 -550 935 -297 546 -586 1156 -799 1685 -35 85
-69 169 -76 185 -53 122 -197 520 -300 830 -127 380 -192 593 -276 900 -21 77
-145 565 -153 605 -7 30 -20 90 -41 185 -16 71 -60 279 -69 325 -2 14 -14 70
-25 125 -28 140 -71 381 -77 430 -3 22 -9 60 -14 85 -5 25 -14 81 -20 125 -14
96 -19 132 -25 165 -2 14 -7 50 -10 80 -3 30 -8 62 -10 70 -2 8 -6 40 -10 71
-3 31 -7 65 -9 75 -2 11 -7 53 -11 94 -4 41 -8 77 -10 80 -2 4 -11 87 -20 195
-2 17 -6 57 -9 90 -3 33 -8 80 -11 105 -2 25 -7 77 -10 115 -3 39 -7 95 -10
125 -2 30 -7 93 -10 140 -2 47 -7 123 -10 170 -7 115 -15 290 -20 435 -5 149
-6 906 -1 1035 12 321 25 550 41 755 3 28 7 84 10 125 8 102 21 233 31 325 3
28 7 66 9 85 2 19 7 62 10 95 3 33 7 71 10 85 2 14 7 52 10 85 6 56 18 146 30
225 3 19 14 96 25 170 11 74 22 146 24 160 6 36 19 122 22 140 1 8 12 69 24
135 12 66 24 134 26 150 11 67 97 489 125 610 17 72 32 140 35 151 29 150 175
698 270 1014 61 203 246 767 268 815 8 17 19 48 26 70 38 120 240 632 350 885
l71 165 1 313 c0 172 -2 315 -4 318 -3 2 -24 -37 -48 -88z"/>
    <path d="M5081 25307 c-24 -78 -53 -169 -63 -202 -11 -33 -21 -67 -23 -75 -2
-8 -27 -96 -55 -195 -47 -165 -192 -727 -203 -785 -3 -14 -28 -133 -56 -265
-53 -254 -98 -481 -105 -530 -2 -17 -16 -102 -30 -190 -15 -88 -29 -171 -31
-185 -5 -34 -16 -110 -20 -140 -2 -14 -7 -45 -10 -70 -3 -25 -8 -56 -10 -70
-2 -14 -6 -47 -10 -75 -3 -27 -7 -61 -9 -75 -3 -14 -7 -52 -11 -85 -3 -33 -8
-73 -10 -90 -13 -102 -15 -126 -20 -180 -3 -33 -8 -85 -11 -115 -9 -82 -12
-115 -19 -220 -3 -52 -8 -106 -10 -120 -2 -14 -7 -81 -11 -150 -4 -69 -8 -143
-9 -165 -26 -391 -26 -1249 0 -1755 3 -75 15 -244 20 -305 2 -27 7 -86 10
-130 3 -44 8 -96 10 -115 2 -19 7 -66 10 -105 6 -77 15 -157 20 -195 2 -14 7
-54 10 -90 3 -36 8 -76 10 -90 2 -14 6 -50 10 -80 3 -30 8 -66 10 -80 2 -14 7
-50 10 -80 3 -30 7 -62 10 -70 2 -8 6 -37 10 -65 3 -27 8 -63 11 -80 3 -16 7
-41 8 -55 2 -14 6 -41 9 -60 4 -19 16 -93 28 -165 40 -248 133 -727 175 -900
3 -11 7 -31 10 -45 10 -51 105 -438 129 -525 138 -501 160 -576 301 -1000 87
-262 280 -791 325 -890 4 -11 45 -107 89 -212 44 -106 88 -212 99 -235 10 -24
38 -86 62 -138 171 -383 392 -827 571 -1149 32 -58 58 -106 58 -108 0 -15 373
-639 498 -833 407 -630 856 -1240 1250 -1700 36 -41 74 -86 86 -100 81 -96
215 -249 236 -270 14 -14 43 -46 64 -70 251 -287 852 -885 1191 -1185 50 -44
92 -82 95 -85 23 -23 188 -164 341 -291 534 -446 1130 -880 1707 -1244 78 -49
155 -98 170 -107 15 -10 34 -21 42 -25 8 -5 89 -52 179 -106 90 -54 197 -117
238 -140 41 -23 91 -51 112 -63 20 -11 72 -39 116 -63 44 -24 94 -51 110 -61
52 -30 272 -144 460 -238 269 -134 636 -305 795 -369 19 -8 43 -18 53 -24 83
-45 782 -313 1135 -434 l182 -63 0 137 0 137 -72 23 c-72 22 -224 75 -263 91
-11 5 -78 30 -150 56 -216 78 -616 238 -810 324 -22 9 -78 34 -125 55 -47 20
-114 51 -150 67 -36 17 -90 42 -120 55 -284 129 -882 440 -1173 610 -60 35
-112 63 -118 63 -5 0 -9 5 -9 10 0 6 -4 10 -10 10 -35 0 -837 513 -1126 721
-34 24 -109 77 -165 118 -57 41 -116 84 -130 95 -15 12 -39 30 -55 41 -173
123 -673 526 -904 729 -14 12 -64 56 -110 96 -47 41 -87 77 -90 80 -3 3 -54
50 -115 105 -292 266 -683 657 -985 985 -52 57 -100 108 -105 114 -6 6 -35 40
-65 76 -30 35 -64 73 -75 85 -52 52 -330 386 -496 596 -168 213 -386 504 -544
729 -148 209 -516 776 -600 922 -5 10 -32 54 -59 100 -261 441 -578 1042 -749
1423 -25 55 -61 136 -82 180 -60 131 -227 529 -289 690 -32 83 -69 179 -83
215 -67 171 -263 748 -336 990 -83 272 -197 699 -267 997 -60 258 -175 832
-194 973 -3 19 -10 62 -15 95 -15 91 -45 289 -55 370 -16 121 -46 357 -51 405
-6 54 -9 78 -20 195 -3 33 -8 80 -10 105 -9 91 -16 179 -30 380 -3 47 -8 110
-10 140 -27 360 -27 1620 0 1855 2 16 6 82 10 145 3 63 8 131 10 150 2 19 7
69 10 110 6 80 12 147 21 220 3 25 7 69 9 97 4 58 12 130 25 228 5 39 12 95
15 125 3 30 7 62 10 70 2 8 6 42 10 75 3 33 8 69 10 80 2 11 7 40 10 65 3 25
7 54 9 65 2 11 7 42 10 68 4 27 9 57 11 67 6 29 16 93 21 125 2 17 8 53 13 80
6 28 12 66 15 85 4 28 29 159 52 275 2 11 8 43 13 70 5 28 22 104 36 170 15
66 29 131 31 145 11 56 104 443 134 555 l31 120 1 438 c0 241 -2 440 -4 442
-2 2 -23 -60 -47 -138z"/>
    <path d="M35770 25450 c-1 -3 -2 -201 -2 -440 l-1 -435 56 -221 c50 -199 101
-411 112 -472 2 -12 6 -30 9 -40 3 -9 7 -28 10 -42 3 -14 23 -115 46 -224 22
-110 49 -252 61 -317 11 -64 22 -128 25 -141 2 -13 7 -39 9 -58 3 -19 8 -45
10 -57 3 -12 7 -41 10 -65 3 -24 10 -68 15 -98 11 -68 24 -154 35 -245 3 -22
7 -51 10 -65 2 -14 7 -50 10 -80 3 -30 8 -66 10 -80 2 -14 7 -53 10 -87 3 -34
8 -70 10 -81 2 -10 6 -56 10 -103 4 -46 8 -91 10 -99 2 -8 6 -51 9 -95 4 -44
9 -102 11 -130 41 -470 50 -708 50 -1325 0 -533 -5 -734 -29 -1065 -18 -244
-24 -322 -31 -381 -5 -50 -7 -68 -20 -209 -3 -38 -8 -81 -10 -95 -2 -14 -6
-50 -10 -80 -7 -61 -44 -351 -50 -390 -2 -14 -7 -45 -10 -70 -3 -25 -15 -101
-26 -170 -11 -69 -22 -141 -25 -160 -3 -19 -7 -42 -9 -50 -2 -8 -7 -35 -10
-60 -5 -35 -50 -273 -91 -478 -3 -13 -16 -76 -30 -140 -14 -64 -27 -125 -29
-135 -2 -10 -6 -26 -9 -35 -3 -9 -8 -31 -11 -48 -7 -43 -89 -371 -132 -528
-19 -72 -36 -137 -38 -145 -6 -25 -104 -360 -120 -411 -8 -25 -38 -117 -66
-205 -96 -301 -277 -806 -339 -950 -9 -22 -27 -67 -39 -100 -13 -33 -27 -69
-32 -80 -4 -11 -47 -112 -95 -225 -47 -113 -102 -238 -120 -278 -19 -41 -34
-75 -34 -76 0 -6 -128 -273 -225 -471 -520 -1060 -1221 -2142 -1985 -3065 -52
-63 -97 -117 -100 -120 -3 -3 -43 -50 -90 -105 -244 -289 -480 -544 -816 -879
-279 -280 -613 -594 -783 -736 -30 -25 -61 -52 -70 -61 -31 -30 -327 -276
-451 -375 -69 -54 -127 -101 -130 -105 -14 -16 -430 -327 -505 -377 -22 -15
-42 -29 -45 -33 -3 -3 -48 -35 -100 -72 -52 -36 -100 -70 -106 -75 -13 -12
-503 -335 -586 -387 -78 -49 -362 -222 -403 -245 -16 -10 -69 -40 -116 -67
-510 -297 -1130 -607 -1674 -837 -126 -54 -243 -104 -260 -111 -153 -68 -800
-307 -932 -346 l-43 -12 0 -137 0 -137 203 69 c111 38 229 79 262 90 33 11 64
25 69 29 6 5 16 9 23 9 12 0 325 118 388 146 17 7 75 31 130 53 110 43 378
158 465 198 65 30 123 56 130 58 22 6 526 250 634 307 50 27 95 48 102 48 6 0
17 7 24 15 7 8 16 15 21 15 8 0 342 180 437 235 10 6 65 37 122 70 58 33 113
64 122 70 10 5 59 34 110 64 51 30 104 62 118 72 14 9 111 70 215 135 325 203
717 471 1020 697 201 151 446 340 481 372 6 6 30 26 54 45 60 47 354 292 360
299 3 4 34 31 70 61 35 30 72 62 80 70 9 8 54 49 100 90 231 205 345 315 650
620 240 241 429 436 508 528 10 11 50 56 89 99 39 43 133 150 208 238 76 88
147 171 159 185 12 14 78 95 146 180 69 85 127 157 130 160 3 3 27 34 55 70
27 36 52 67 55 70 12 11 244 325 365 495 167 234 527 774 600 902 25 44 220
371 234 393 9 14 21 34 27 45 6 11 48 88 94 170 121 220 133 240 190 350 643
1223 1121 2515 1443 3900 23 100 92 424 103 485 2 14 7 36 9 50 12 57 17 83
50 270 31 177 39 220 50 300 5 39 17 113 21 134 2 10 6 44 10 75 3 31 8 65 10
76 4 20 10 58 19 138 9 72 16 131 20 157 6 42 15 122 20 170 2 25 6 68 9 95 3
28 8 79 11 115 3 36 8 81 10 100 2 19 7 73 10 120 3 47 8 105 10 130 2 25 7
90 10 145 3 55 8 123 10 150 13 193 19 472 19 865 1 468 -5 687 -29 1055 -9
148 -24 336 -30 390 -2 17 -6 66 -10 110 -6 76 -9 105 -20 193 -2 20 -7 65
-10 99 -3 34 -7 70 -9 80 -2 10 -7 45 -10 78 -4 33 -14 110 -22 170 -9 61 -17
126 -20 145 -2 19 -6 46 -9 60 -7 35 -13 77 -20 140 -4 30 -8 57 -10 60 -2 3
-6 26 -10 50 -9 66 -35 213 -40 230 -2 8 -6 33 -9 55 -4 22 -8 51 -11 65 -10
46 -15 75 -20 105 -9 51 -56 278 -65 315 -5 19 -12 50 -15 67 -3 18 -12 63
-21 100 -9 38 -17 75 -19 83 -2 8 -17 72 -34 141 -17 69 -33 134 -35 145 -4
20 -27 105 -111 419 -28 103 -184 622 -199 660 -3 6 -5 8 -6 5z"/>
    <path d="M5253 21217 c-8 -13 -11 -53 -18 -233 -6 -178 -7 -853 -1 -1014 8
-195 18 -405 21 -440 2 -19 6 -87 10 -150 3 -63 8 -131 10 -150 3 -19 7 -64
10 -100 10 -119 16 -185 20 -210 2 -14 7 -56 10 -94 9 -102 14 -153 19 -184 3
-15 8 -49 11 -77 3 -27 7 -65 10 -83 14 -109 26 -192 30 -213 3 -13 7 -44 10
-69 3 -25 10 -70 15 -100 5 -30 12 -73 15 -95 3 -22 10 -62 15 -90 5 -27 11
-63 13 -80 8 -54 58 -318 77 -405 11 -47 22 -101 25 -120 20 -116 179 -772
225 -925 12 -38 23 -77 25 -85 53 -233 341 -1086 495 -1465 121 -296 216 -520
295 -690 18 -38 42 -92 55 -120 43 -96 310 -631 371 -745 51 -95 212 -381 317
-564 330 -572 911 -1403 1340 -1917 11 -13 57 -69 103 -124 45 -55 90 -107 98
-116 9 -9 25 -27 35 -40 37 -46 221 -254 272 -309 29 -30 68 -73 87 -95 119
-136 622 -641 818 -819 52 -48 108 -100 214 -196 63 -58 303 -263 420 -360 50
-41 92 -77 95 -80 8 -8 186 -149 260 -205 36 -28 67 -53 70 -56 6 -7 253 -192
370 -277 395 -287 827 -568 1280 -833 41 -24 83 -48 92 -54 9 -5 39 -22 65
-36 26 -15 111 -62 188 -104 250 -139 762 -394 1040 -518 55 -25 125 -56 155
-70 59 -27 420 -177 533 -221 132 -52 253 -98 317 -121 36 -13 103 -37 149
-54 46 -17 86 -31 88 -31 1 0 3 58 3 129 l0 128 -62 23 c-134 47 -254 91 -273
100 -11 5 -85 34 -165 65 -166 65 -486 199 -598 251 -43 20 -117 54 -166 76
-200 88 -717 350 -986 500 -25 14 -72 40 -105 58 -33 18 -88 51 -123 72 -34
21 -64 38 -67 38 -10 0 -488 297 -682 424 -236 155 -914 640 -943 676 -3 3
-45 36 -94 74 -74 58 -139 110 -301 244 -321 265 -662 577 -1010 926 -266 267
-310 312 -491 511 -329 360 -722 842 -1016 1248 -171 235 -398 562 -398 573 0
3 -18 29 -40 59 -22 30 -40 56 -40 59 0 6 -115 186 -130 203 -5 7 -10 15 -10
19 0 3 -13 26 -30 51 -16 24 -30 46 -30 48 0 3 -19 35 -43 72 -176 275 -558
990 -745 1393 -16 36 -47 101 -67 145 -20 44 -77 175 -126 290 -50 116 -94
219 -99 230 -4 11 -25 63 -45 115 -21 52 -43 109 -51 125 -111 258 -434 1234
-499 1511 -3 10 -27 107 -55 214 -77 302 -175 736 -205 910 -9 52 -15 86 -20
110 -3 14 -12 66 -20 115 -24 145 -25 149 -30 180 -3 17 -7 41 -10 55 -3 13
-7 42 -10 65 -3 22 -8 51 -10 65 -2 14 -7 48 -10 75 -3 28 -8 57 -10 65 -2 8
-6 36 -9 63 -3 26 -9 68 -12 94 -4 26 -8 59 -10 73 -1 14 -6 54 -9 90 -3 36
-8 72 -10 80 -2 8 -7 47 -10 85 -3 39 -8 84 -10 100 -2 17 -6 62 -10 100 -3
39 -8 93 -11 120 -11 121 -13 146 -19 245 -3 58 -8 128 -10 155 -20 252 -28
1220 -13 1510 l8 140 -115 1 c-64 0 -118 -3 -122 -9z"/>
    <path d="M6145 21220 c-2 -3 -7 -91 -11 -195 -15 -344 -8 -1133 11 -1380 2
-22 6 -87 9 -145 4 -58 8 -127 11 -155 6 -63 13 -140 20 -230 3 -38 7 -88 10
-110 3 -22 7 -62 10 -90 3 -27 8 -63 10 -80 2 -16 7 -61 10 -100 4 -38 8 -77
10 -85 3 -8 7 -42 11 -75 3 -33 7 -62 9 -65 2 -3 6 -34 10 -70 3 -36 8 -72 10
-80 2 -8 7 -35 10 -60 3 -25 11 -72 16 -105 6 -33 12 -71 14 -85 5 -34 14 -86
25 -145 5 -27 12 -63 15 -80 11 -64 31 -173 40 -215 3 -14 13 -61 21 -105 82
-425 253 -1066 416 -1565 108 -331 326 -919 398 -1075 5 -11 18 -40 28 -65
134 -310 214 -485 353 -765 119 -242 158 -317 258 -500 21 -38 52 -95 69 -125
16 -30 53 -95 82 -145 29 -49 64 -110 78 -135 14 -25 72 -121 130 -215 58 -93
119 -192 136 -220 17 -27 34 -54 38 -60 4 -5 72 -107 151 -225 402 -603 807
-1119 1342 -1709 223 -246 638 -659 900 -896 49 -44 96 -87 105 -95 42 -39
172 -153 235 -205 39 -32 72 -61 75 -65 3 -3 30 -25 60 -50 30 -25 57 -47 60
-50 11 -12 264 -213 385 -306 291 -225 707 -517 1005 -707 168 -107 430 -267
436 -267 2 0 27 -15 56 -34 173 -110 758 -419 1113 -588 300 -142 737 -328
1039 -442 l66 -25 0 122 0 122 -178 69 c-97 39 -184 73 -192 78 -8 4 -98 43
-200 87 -173 74 -226 98 -455 204 -155 72 -553 275 -715 365 -25 13 -90 50
-145 80 -266 147 -656 387 -943 581 -79 53 -150 101 -159 106 -9 6 -24 15 -32
22 -9 7 -54 39 -101 72 -175 124 -537 394 -645 483 -11 9 -47 38 -80 65 -166
132 -594 501 -670 578 -12 11 -77 72 -145 136 -240 224 -544 535 -805 823
-235 259 -536 625 -753 913 -180 240 -225 302 -367 509 -302 437 -530 810
-782 1274 -46 85 -88 162 -93 170 -13 22 -253 504 -288 580 -51 110 -87 190
-142 315 -28 66 -58 134 -65 150 -36 79 -55 125 -55 130 0 4 -9 25 -19 48 -18
40 -43 103 -131 332 -189 491 -419 1233 -525 1695 -24 105 -59 257 -70 305
-14 61 -40 187 -49 238 -3 15 -7 35 -10 45 -3 9 -7 33 -10 52 -3 19 -8 46 -11
60 -3 14 -9 50 -15 80 -6 30 -12 64 -14 75 -2 11 -7 40 -11 65 -4 25 -9 52
-10 61 -4 23 -14 81 -21 127 -3 20 -9 62 -14 92 -5 30 -12 78 -15 105 -3 28
-9 63 -12 80 -3 16 -7 45 -9 64 -2 19 -6 49 -8 67 -6 36 -22 177 -31 269 -3
33 -8 71 -10 85 -5 26 -10 79 -20 215 -3 44 -8 96 -10 115 -2 19 -7 87 -11
150 -4 63 -8 131 -10 150 -19 277 -26 1083 -10 1411 l8 176 -112 -1 c-61 0
-113 -3 -115 -6z"/>
    <path d="M7039 21210 c0 -8 -2 -51 -4 -95 -23 -450 -19 -1081 10 -1515 9 -135
23 -321 30 -390 23 -230 30 -297 41 -375 2 -22 7 -58 10 -80 8 -69 31 -236 39
-290 14 -90 44 -268 51 -310 2 -11 9 -47 14 -80 21 -127 59 -318 101 -505 17
-74 33 -146 35 -160 3 -14 21 -88 40 -165 20 -77 37 -148 39 -159 3 -10 12
-44 21 -75 9 -31 18 -65 20 -75 2 -10 8 -33 14 -51 6 -18 12 -41 15 -51 7 -33
96 -338 104 -359 5 -11 30 -87 56 -170 46 -147 160 -471 228 -650 65 -172 179
-450 188 -460 5 -5 9 -15 9 -21 0 -7 15 -45 34 -86 18 -40 50 -111 71 -158
134 -301 377 -782 529 -1048 20 -35 36 -66 36 -68 0 -3 11 -21 24 -42 13 -20
67 -111 121 -202 156 -262 508 -805 567 -875 11 -12 197 -267 218 -299 57 -84
476 -606 555 -692 6 -6 35 -39 65 -75 54 -62 114 -130 155 -174 11 -12 63 -68
115 -126 195 -215 659 -670 925 -908 218 -195 550 -469 765 -632 47 -35 87
-66 90 -69 6 -7 304 -223 385 -279 100 -70 254 -175 273 -186 9 -6 55 -35 102
-66 137 -90 264 -170 430 -268 85 -50 162 -95 170 -101 14 -8 296 -165 419
-233 197 -108 716 -356 986 -472 61 -25 124 -53 140 -60 17 -7 58 -25 93 -38
l62 -26 0 119 c0 118 0 118 -25 124 -14 4 -49 17 -78 30 -28 13 -101 45 -162
71 -745 323 -1556 774 -2210 1228 -402 280 -840 617 -1125 867 -36 31 -75 65
-88 76 -13 10 -36 30 -51 44 -15 14 -47 43 -72 65 -301 270 -707 674 -969 965
-41 46 -80 88 -85 94 -6 6 -35 40 -65 76 -30 36 -60 69 -66 75 -9 9 -141 165
-184 219 -8 10 -20 23 -25 30 -81 91 -396 504 -550 721 -273 384 -615 928
-805 1282 -17 32 -58 108 -91 168 -217 403 -500 1023 -663 1455 -26 69 -52
134 -56 145 -22 50 -174 498 -228 670 -71 225 -204 707 -227 815 -2 8 -11 47
-20 85 -19 79 -23 100 -30 135 -3 14 -9 40 -14 58 -5 18 -10 35 -10 37 0 3 -5
29 -10 58 -15 69 -14 64 -55 277 -38 200 -43 227 -52 280 -3 19 -7 46 -10 60
-4 24 -40 270 -50 340 -3 19 -7 46 -9 60 -2 14 -7 52 -10 85 -3 33 -8 71 -10
85 -3 14 -7 52 -10 85 -3 33 -8 76 -10 95 -6 47 -14 121 -20 200 -3 36 -7 85
-10 110 -2 25 -7 90 -10 145 -3 55 -8 120 -10 144 -23 283 -26 1302 -3 1530 2
25 -9 28 -107 27 -87 0 -105 -3 -106 -16z"/>
    <path d="M7944 21218 c-31 -49 -37 -1122 -9 -1508 2 -25 6 -88 10 -140 7 -103
12 -162 20 -255 3 -33 8 -82 11 -110 2 -27 6 -70 9 -95 3 -25 7 -63 10 -85 2
-22 7 -56 10 -75 2 -19 7 -55 10 -80 10 -97 29 -232 45 -330 5 -30 12 -75 15
-99 3 -23 7 -46 9 -50 2 -3 7 -28 10 -54 7 -49 64 -355 81 -437 3 -14 10 -45
15 -70 5 -25 12 -56 15 -70 3 -14 8 -36 11 -50 13 -67 128 -520 159 -630 20
-69 38 -132 40 -140 34 -144 276 -854 356 -1045 7 -16 13 -32 14 -35 4 -17 53
-137 113 -280 193 -455 432 -938 655 -1325 44 -77 88 -153 97 -170 9 -16 23
-41 31 -55 9 -14 65 -104 124 -200 117 -189 260 -406 389 -590 69 -99 381
-517 428 -575 32 -38 139 -170 155 -190 174 -216 458 -530 738 -815 350 -357
634 -615 1040 -948 67 -55 85 -69 115 -92 18 -14 56 -43 84 -66 455 -363 1138
-809 1756 -1144 163 -88 651 -329 808 -398 l112 -50 0 109 0 110 -42 18 c-185
80 -612 293 -873 436 -180 98 -656 381 -720 427 -5 4 -107 72 -225 150 -216
144 -436 301 -606 433 -50 38 -106 81 -124 95 -104 78 -489 401 -605 507 -11
10 -65 58 -120 108 -55 49 -226 216 -380 370 -249 249 -346 350 -506 530 -24
27 -48 55 -54 61 -41 45 -171 198 -225 264 -19 23 -40 48 -45 54 -6 6 -42 51
-80 100 -39 49 -82 103 -96 120 -23 27 -255 339 -337 451 -215 296 -576 875
-765 1225 -22 41 -61 113 -87 160 -25 47 -87 168 -137 270 -335 677 -579 1302
-802 2055 -41 137 -102 369 -141 535 -17 74 -35 151 -40 170 -14 55 -39 162
-45 195 -2 17 -7 41 -10 55 -10 45 -66 343 -75 400 -35 213 -51 321 -56 360
-3 25 -9 72 -14 105 -5 33 -11 85 -15 115 -3 30 -8 66 -10 80 -2 14 -7 57 -10
95 -4 39 -8 81 -10 95 -2 14 -7 61 -10 105 -3 44 -8 96 -10 115 -2 19 -7 78
-11 130 -3 52 -7 115 -9 140 -19 265 -25 917 -11 1255 5 105 9 206 10 225 l1
35 -93 1 c-51 1 -95 -3 -98 -8z"/>
    <path d="M8835 21221 c-10 -19 -20 -378 -20 -776 0 -400 5 -594 20 -775 2 -25
7 -85 10 -133 4 -49 8 -101 10 -115 2 -15 6 -65 10 -112 3 -47 8 -96 10 -110
3 -14 7 -47 10 -75 11 -101 33 -270 50 -385 2 -14 6 -43 10 -65 3 -23 7 -50 9
-62 3 -11 7 -37 10 -57 11 -65 36 -210 46 -261 5 -27 12 -61 14 -75 18 -98 88
-418 110 -502 9 -31 17 -67 20 -80 21 -104 133 -498 209 -733 28 -88 52 -162
52 -165 1 -3 4 -12 8 -20 3 -8 24 -67 46 -130 89 -253 199 -541 255 -662 14
-31 26 -59 26 -62 0 -3 12 -31 26 -63 15 -32 46 -103 71 -158 183 -409 518
-1032 751 -1395 126 -196 194 -301 263 -400 58 -84 188 -267 206 -290 6 -8 40
-53 75 -100 107 -143 279 -362 298 -380 3 -3 34 -41 70 -85 35 -44 67 -82 70
-85 3 -3 32 -36 65 -75 33 -38 65 -75 70 -81 6 -6 46 -51 90 -100 240 -266
571 -597 849 -849 6 -6 47 -42 91 -80 44 -39 82 -72 85 -75 3 -3 34 -30 70
-60 36 -30 67 -58 70 -61 13 -15 372 -298 495 -391 376 -281 771 -542 1145
-757 69 -40 132 -76 140 -81 8 -5 35 -20 60 -33 25 -14 88 -48 140 -76 112
-61 466 -241 475 -241 3 0 4 46 3 103 l-3 102 -145 73 c-184 93 -448 237 -626
343 -77 45 -148 87 -159 93 -142 80 -604 390 -840 563 -106 79 -108 80 -254
194 -51 41 -106 83 -120 94 -40 30 -320 264 -366 306 -22 20 -92 83 -155 139
-291 261 -664 640 -916 930 -21 25 -41 47 -44 50 -5 4 -152 179 -199 235 -52
64 -184 229 -226 285 -27 36 -53 70 -57 75 -5 6 -22 28 -39 50 -16 22 -35 47
-42 55 -56 69 -394 566 -486 715 -10 17 -34 55 -53 85 -188 296 -459 800 -636
1180 -101 219 -270 619 -323 765 -10 28 -32 88 -49 135 -73 195 -224 663 -276
855 -28 107 -35 130 -38 145 -2 8 -9 35 -16 60 -7 25 -14 52 -16 60 -1 8 -14
61 -28 117 -14 56 -27 112 -30 125 -2 13 -16 75 -30 138 -14 63 -28 126 -30
140 -3 14 -16 81 -29 150 -14 69 -28 144 -31 166 -4 22 -8 51 -11 64 -3 13 -7
42 -10 65 -3 22 -8 47 -10 55 -2 8 -6 35 -9 60 -3 25 -8 54 -10 65 -2 11 -7
45 -11 75 -7 60 -11 85 -19 145 -3 22 -8 65 -11 95 -3 30 -8 66 -10 80 -2 14
-7 54 -10 90 -3 36 -7 88 -10 115 -3 28 -7 70 -10 95 -42 421 -51 1178 -19
1661 l5 85 -91 0 c-50 0 -93 -2 -95 -5z"/>
    <path d="M9729 21186 c-1 -23 -2 -57 -4 -76 -24 -320 -24 -1016 0 -1320 1 -25
6 -81 9 -125 5 -70 15 -198 21 -260 3 -40 16 -161 20 -190 2 -16 7 -52 10 -80
8 -64 40 -289 50 -355 3 -14 7 -43 10 -65 3 -22 9 -53 12 -70 4 -16 7 -37 8
-45 3 -36 93 -482 112 -555 16 -65 21 -86 29 -125 9 -45 65 -253 99 -370 18
-63 37 -132 40 -153 4 -20 11 -40 16 -43 5 -3 9 -12 9 -21 0 -38 176 -551 277
-808 286 -727 644 -1411 1076 -2055 138 -206 333 -478 392 -547 13 -16 21 -26
75 -98 61 -81 278 -343 359 -435 207 -233 297 -328 515 -545 240 -239 305
-301 445 -425 41 -36 79 -70 85 -75 6 -6 38 -33 71 -60 33 -28 62 -53 65 -56
4 -4 142 -117 210 -172 423 -341 1025 -745 1480 -994 30 -16 90 -49 133 -72
l77 -43 0 99 0 98 -83 44 c-107 58 -344 196 -477 279 -105 65 -446 290 -486
321 -12 9 -32 23 -44 31 -55 37 -384 283 -465 348 -133 107 -342 281 -381 317
-6 5 -46 42 -89 80 -210 187 -584 555 -740 729 -44 49 -87 96 -95 105 -9 9
-45 50 -80 91 -36 41 -70 81 -77 88 -7 7 -29 34 -50 60 -21 25 -51 61 -66 78
-16 18 -81 99 -146 181 -559 711 -1000 1444 -1382 2298 -106 239 -248 607
-359 935 -62 183 -220 735 -244 856 -3 11 -10 42 -16 69 -6 28 -13 57 -15 65
-2 8 -17 80 -34 160 -31 150 -71 356 -77 400 -1 14 -12 81 -23 150 -22 138
-29 185 -36 245 -11 96 -15 132 -20 165 -5 40 -12 106 -20 200 -4 36 -8 76
-10 90 -2 14 -7 75 -11 135 -3 61 -8 133 -10 160 -22 331 -21 1007 1 1270 2
22 5 60 6 85 l3 45 -87 1 -87 0 -1 -40z"/>
    <path d="M10635 21220 c-3 -5 -7 -32 -9 -62 -28 -344 -29 -1089 -1 -1413 2
-27 7 -81 10 -120 6 -79 23 -252 30 -305 3 -19 7 -55 10 -80 3 -25 7 -61 10
-80 3 -19 7 -55 10 -80 5 -40 46 -296 60 -375 13 -69 46 -235 60 -300 8 -38
17 -79 19 -90 11 -52 47 -206 61 -255 8 -30 18 -68 21 -85 3 -16 14 -59 24
-95 10 -36 33 -114 50 -175 119 -418 319 -956 514 -1379 96 -208 272 -551 352
-689 19 -32 34 -60 34 -62 0 -8 235 -393 315 -515 148 -226 416 -597 540 -748
8 -10 51 -62 95 -116 81 -99 237 -281 275 -321 11 -12 72 -77 135 -145 268
-290 647 -648 925 -873 356 -289 611 -474 990 -719 91 -59 254 -158 260 -158
3 0 5 40 5 89 l0 89 -117 73 c-115 71 -413 270 -500 333 -346 250 -737 571
-984 806 -263 250 -594 596 -745 780 -16 19 -36 42 -44 51 -50 53 -283 351
-400 508 -200 272 -491 721 -625 966 -15 28 -35 64 -45 80 -81 139 -274 526
-365 730 -266 598 -446 1133 -599 1785 -40 166 -34 139 -79 380 -48 251 -51
269 -67 385 -6 44 -13 96 -16 115 -3 19 -7 58 -10 85 -2 28 -6 61 -9 75 -3 14
-7 45 -9 70 -22 197 -21 193 -31 335 -4 55 -8 116 -10 135 -2 19 -7 123 -11
230 -11 329 -7 673 12 975 4 55 7 116 8 135 l1 35 -73 1 c-40 1 -75 -2 -77 -6z"/>
    <path d="M11529 21216 c-1 -6 -2 -22 -4 -36 -31 -273 -37 -957 -10 -1325 13
-186 27 -337 40 -440 2 -16 7 -52 10 -80 17 -139 59 -411 80 -515 3 -14 9 -47
15 -75 5 -27 12 -61 15 -75 2 -14 12 -61 21 -105 74 -365 209 -822 383 -1295
24 -66 130 -327 159 -390 11 -25 41 -92 67 -150 179 -398 425 -841 688 -1235
66 -99 127 -190 136 -201 9 -12 23 -32 31 -44 91 -136 418 -548 580 -730 177
-199 501 -529 664 -675 49 -44 94 -85 100 -91 19 -18 229 -197 269 -229 21
-16 48 -38 60 -48 143 -119 575 -437 592 -437 3 0 5 38 5 85 l0 84 -62 42
c-35 24 -65 45 -68 49 -3 3 -36 27 -73 54 -292 206 -683 543 -1012 871 -88 88
-200 205 -250 259 -49 55 -97 106 -105 115 -140 148 -528 645 -665 851 -17 25
-32 47 -35 50 -21 19 -270 417 -270 430 0 5 -4 10 -10 10 -5 0 -10 4 -10 9 0
5 -21 45 -46 88 -141 237 -300 551 -462 913 -109 244 -311 811 -387 1085 -73
263 -160 634 -191 813 -8 49 -24 143 -28 166 -3 14 -10 60 -16 103 -6 43 -13
89 -16 103 -23 136 -46 363 -69 685 -20 278 -20 804 -1 1075 3 41 8 113 11
160 l6 86 -70 0 c-43 0 -71 -4 -72 -10z"/>
    <path d="M12429 21215 c0 -5 -2 -23 -4 -40 -5 -38 -13 -137 -22 -285 -10 -154
-9 -755 1 -905 12 -188 23 -317 31 -385 3 -19 9 -75 15 -125 12 -101 18 -146
25 -190 3 -16 7 -48 10 -70 3 -22 10 -62 15 -90 5 -27 12 -66 15 -85 4 -19 15
-82 27 -140 11 -58 22 -116 24 -130 7 -38 104 -431 115 -465 5 -16 31 -104 58
-195 28 -91 73 -230 101 -310 29 -80 55 -156 60 -170 14 -42 126 -319 170
-420 91 -208 255 -533 379 -752 97 -172 362 -589 402 -632 11 -11 19 -23 19
-28 0 -4 7 -16 14 -25 8 -10 65 -85 127 -168 383 -513 866 -1013 1373 -1423
l41 -34 3 68 c2 38 0 78 -3 89 -3 11 -34 42 -68 68 -34 26 -80 65 -103 85 -22
20 -69 62 -105 92 -163 140 -566 556 -773 800 -152 178 -376 479 -525 705 -62
94 -121 182 -132 197 -10 15 -19 30 -19 33 0 3 -22 40 -48 83 -164 261 -389
709 -538 1069 -109 263 -276 755 -319 939 -2 11 -22 89 -43 174 -39 152 -82
343 -87 384 -2 21 -17 101 -40 216 -2 14 -7 43 -10 65 -3 23 -7 50 -9 60 -2
11 -7 43 -10 70 -21 164 -26 204 -30 245 -3 25 -8 70 -11 100 -38 353 -42
1074 -8 1420 12 125 17 115 -54 115 -37 1 -63 -4 -64 -10z"/>
    <path d="M13902 21216 c-8 -13 -9 -20 -17 -110 -3 -39 -8 -87 -10 -106 -20
-190 -27 -734 -12 -945 11 -154 16 -203 22 -255 2 -25 7 -72 10 -105 3 -33 8
-71 11 -85 2 -14 6 -45 9 -70 14 -111 72 -425 107 -575 147 -630 394 -1261
698 -1785 40 -69 79 -136 86 -150 12 -22 161 -253 196 -303 40 -58 241 -331
251 -342 7 -7 21 -25 32 -41 11 -15 25 -32 30 -38 6 -6 28 -33 50 -61 22 -27
46 -56 53 -63 10 -11 12 492 12 2515 l0 2529 -761 0 c-521 0 -762 -3 -767 -10z"/>
    <path d="M25470 18696 c1 -2215 2 -2529 15 -2512 8 11 32 40 52 64 21 25 45
55 53 66 8 12 24 32 37 46 66 75 314 425 398 561 200 326 323 556 458 859 99
223 224 557 276 740 11 36 31 105 45 154 14 48 28 98 30 110 3 11 16 66 30
121 14 55 34 147 46 205 12 58 24 114 26 125 2 11 7 40 10 65 3 25 8 47 9 50
2 3 6 26 9 50 4 25 9 56 11 70 3 14 7 44 10 67 3 24 7 61 10 83 38 301 49 489
49 830 0 237 -9 500 -19 551 -2 11 -7 54 -10 97 -3 42 -8 86 -10 97 -2 11 -4
22 -4 25 -1 3 -345 6 -766 6 l-765 0 0 -2530z"/>
    <path d="M28346 21223 c-2 -3 -3 -16 -1 -31 6 -42 14 -145 22 -277 16 -237 8
-914 -12 -1105 -2 -19 -6 -67 -9 -107 -3 -40 -8 -87 -11 -105 -2 -18 -7 -55
-10 -81 -13 -122 -63 -444 -90 -577 -3 -14 -14 -72 -26 -130 -21 -107 -90
-389 -114 -470 -7 -25 -25 -85 -40 -135 -89 -299 -219 -663 -320 -890 -160
-362 -289 -612 -485 -945 -165 -281 -415 -636 -648 -925 -58 -71 -108 -132
-111 -135 -4 -3 -21 -23 -40 -45 -216 -254 -592 -626 -878 -869 l-103 -87 0
-81 c0 -75 1 -80 18 -67 182 141 456 387 706 635 13 13 150 158 216 229 92 99
259 297 379 450 39 50 75 95 81 102 6 7 62 84 124 171 150 209 331 486 421
647 15 28 55 97 87 155 76 133 285 557 333 674 20 49 41 96 45 105 36 65 264
697 285 790 2 9 11 39 19 66 20 69 95 346 100 370 2 11 13 61 25 110 23 104
22 100 55 265 35 178 88 534 100 665 6 59 16 171 22 230 18 197 26 839 12
1065 -9 144 -19 268 -23 289 -2 9 -4 23 -4 31 -1 12 -14 16 -61 16 -33 1 -62
-1 -64 -3z"/>
    <path d="M29234 21219 c-2 -4 -2 -41 1 -81 7 -100 14 -214 20 -333 5 -114 6
-581 0 -699 -5 -129 -16 -309 -20 -346 -2 -19 -7 -71 -10 -115 -4 -44 -8 -91
-10 -105 -2 -14 -6 -54 -10 -90 -3 -36 -8 -76 -10 -90 -2 -14 -7 -45 -10 -70
-5 -45 -15 -111 -20 -140 -2 -14 -11 -69 -21 -132 -41 -273 -126 -652 -216
-968 -123 -435 -295 -899 -483 -1305 -79 -171 -253 -510 -320 -625 -170 -289
-228 -383 -350 -565 -212 -317 -493 -683 -730 -950 -233 -263 -577 -602 -830
-820 -191 -164 -534 -432 -689 -538 l-56 -38 0 -85 c0 -46 2 -84 5 -84 5 0
124 82 200 138 134 98 281 207 285 212 3 3 48 39 100 81 454 362 920 823 1300
1284 45 55 90 109 99 120 10 12 83 108 163 215 242 324 498 720 671 1040 16
30 40 73 52 95 57 101 251 500 302 620 14 33 31 74 38 90 156 350 330 866 445
1319 50 196 69 282 105 466 13 63 38 197 41 220 6 40 14 83 18 106 2 12 7 45
11 74 4 29 8 61 10 70 2 9 6 41 10 71 3 30 8 61 10 69 2 8 6 47 10 85 3 39 8
86 10 105 10 67 13 106 20 210 4 58 8 116 10 129 9 53 18 371 18 591 0 263
-13 608 -28 720 -2 14 -4 32 -4 41 -1 12 -14 15 -66 15 -36 1 -68 -3 -71 -7z"/>
    <path d="M30116 21221 c-2 -3 -2 -19 -1 -36 4 -53 16 -257 21 -360 6 -134 6
-633 0 -770 -7 -149 -16 -290 -21 -350 -3 -27 -7 -77 -10 -110 -3 -33 -7 -82
-10 -110 -4 -27 -8 -68 -10 -90 -4 -50 -15 -142 -20 -175 -2 -14 -6 -44 -9
-67 -12 -87 -16 -119 -21 -143 -3 -13 -7 -42 -10 -65 -5 -38 -50 -296 -59
-340 -44 -218 -89 -416 -142 -625 -104 -410 -298 -965 -497 -1420 -84 -194
-93 -212 -198 -423 -223 -446 -454 -837 -732 -1237 -102 -147 -335 -457 -390
-520 -7 -8 -31 -37 -53 -65 -21 -27 -41 -52 -44 -55 -3 -3 -45 -52 -94 -110
-74 -86 -176 -201 -276 -311 -122 -133 -480 -483 -635 -620 -27 -24 -55 -48
-61 -54 -315 -284 -876 -701 -1274 -945 l-100 -62 0 -89 c0 -49 3 -89 6 -89
12 0 226 135 446 281 175 116 318 218 488 347 126 96 416 330 479 387 50 45
52 47 101 89 215 187 567 538 780 776 47 52 91 101 99 110 12 12 129 152 268
320 122 146 373 492 533 735 506 762 933 1665 1189 2515 13 41 27 86 32 100
19 55 70 244 109 400 36 142 50 203 75 315 2 11 6 29 9 40 15 68 68 347 72
380 3 22 7 46 10 54 2 8 7 37 10 65 3 28 7 53 9 56 2 3 6 33 10 65 3 33 8 67
10 75 2 8 9 56 15 105 6 50 13 101 15 115 4 30 17 151 20 200 1 19 6 69 9 110
13 145 15 176 23 320 15 280 7 1097 -12 1195 -2 11 -4 36 -4 55 l-1 35 -75 1
c-42 1 -77 -1 -79 -5z"/>
    <path d="M30999 21221 c-1 -8 3 -86 7 -136 21 -272 21 -1041 -1 -1265 -2 -19
-6 -82 -10 -140 -3 -58 -8 -118 -9 -135 -22 -229 -23 -238 -31 -310 -3 -33 -8
-67 -10 -75 -2 -8 -7 -43 -10 -78 -4 -35 -8 -71 -10 -80 -1 -9 -8 -53 -15 -97
-18 -124 -20 -138 -25 -165 -3 -14 -7 -41 -10 -60 -5 -29 -42 -232 -61 -330
-5 -25 -91 -410 -100 -442 -2 -10 -6 -26 -8 -35 -2 -10 -14 -54 -26 -98 -11
-44 -27 -102 -35 -130 -94 -352 -301 -956 -420 -1230 -7 -16 -43 -99 -80 -184
-108 -248 -254 -556 -287 -603 -11 -16 -16 -28 -13 -28 4 0 -2 -15 -13 -32
-20 -34 -50 -88 -122 -223 -145 -270 -393 -668 -608 -974 -92 -130 -283 -389
-321 -434 -11 -12 -59 -71 -107 -132 -48 -60 -90 -112 -93 -115 -3 -3 -24 -27
-46 -55 -22 -27 -49 -59 -60 -71 -11 -12 -45 -50 -75 -85 -30 -35 -80 -91
-110 -124 -30 -33 -72 -80 -95 -105 -74 -82 -489 -495 -584 -580 -51 -47 -103
-94 -115 -105 -65 -59 -185 -162 -351 -300 -416 -347 -1129 -829 -1582 -1071
l-93 -49 0 -98 0 -98 98 53 c53 28 162 90 242 136 80 46 159 92 176 102 265
153 748 484 1049 719 198 154 495 403 670 562 101 91 596 588 685 688 47 52
90 99 95 105 11 11 102 118 188 219 48 56 153 185 212 261 17 21 35 44 40 50
19 20 130 169 237 316 628 867 1135 1855 1478 2880 71 214 184 591 205 684 2
12 27 113 54 226 43 180 81 351 95 430 2 14 12 66 21 115 9 50 18 97 20 105
24 139 53 320 60 380 14 115 17 136 20 150 3 8 7 50 10 93 4 43 8 86 10 96 2
10 6 54 10 97 4 43 8 90 10 104 2 14 7 70 11 125 3 55 8 118 9 140 9 119 19
450 19 660 0 312 -16 729 -29 771 -3 11 -164 16 -166 5z"/>
    <path d="M31884 21155 c25 -305 25 -1015 1 -1397 -8 -130 -16 -234 -20 -258
-2 -14 -7 -65 -11 -115 -11 -145 -20 -230 -29 -295 -2 -14 -7 -52 -11 -85 -3
-33 -8 -69 -10 -80 -2 -11 -6 -40 -9 -65 -3 -25 -8 -54 -10 -66 -2 -11 -7 -45
-11 -75 -3 -30 -9 -70 -14 -89 -5 -19 -11 -57 -15 -85 -8 -62 -101 -540 -120
-615 -8 -30 -16 -66 -19 -80 -16 -91 -124 -493 -191 -715 -125 -417 -337 -987
-486 -1313 -29 -61 -50 -109 -54 -122 -16 -47 -273 -560 -361 -722 -208 -380
-432 -742 -676 -1091 -113 -160 -255 -356 -267 -367 -4 -3 -19 -23 -35 -45
-46 -62 -273 -346 -311 -389 -5 -6 -35 -40 -65 -76 -49 -58 -95 -111 -125
-144 -6 -6 -44 -49 -85 -95 -237 -267 -624 -649 -905 -896 -93 -82 -103 -91
-159 -138 -27 -23 -54 -46 -60 -52 -6 -5 -34 -28 -61 -50 -28 -22 -63 -52 -80
-66 -66 -59 -434 -340 -561 -429 -337 -237 -467 -322 -734 -483 -312 -189
-547 -319 -802 -444 l-118 -58 0 -102 c0 -57 2 -103 6 -103 13 0 462 231 629
325 699 390 1408 886 1965 1374 14 12 50 44 81 71 31 27 69 62 86 77 204 187
274 255 438 418 254 254 401 412 602 646 510 594 973 1259 1362 1959 78 140
345 668 394 780 8 19 30 67 47 105 55 120 210 495 210 509 0 6 4 16 9 21 12
14 137 360 211 585 86 262 235 783 257 900 2 14 15 70 28 125 24 99 69 312 79
370 3 17 16 89 30 160 13 72 34 193 46 270 11 77 23 151 25 165 6 34 35 266
40 315 3 22 7 65 10 95 3 30 8 78 12 105 3 28 7 66 8 85 9 127 17 230 20 260
27 288 26 1451 0 1541 -4 12 -22 15 -96 15 l-91 0 6 -71z"/>
    <path d="M32765 21220 c-2 -3 -2 -21 0 -40 24 -248 24 -1117 0 -1463 -2 -26
-6 -91 -10 -145 -3 -53 -8 -115 -10 -137 -2 -22 -7 -71 -10 -110 -3 -38 -12
-126 -20 -195 -8 -69 -17 -147 -20 -175 -3 -27 -7 -63 -10 -80 -3 -16 -7 -50
-10 -75 -10 -89 -49 -342 -75 -485 -6 -33 -13 -75 -16 -94 -3 -18 -7 -41 -9
-50 -50 -251 -83 -403 -111 -520 -19 -79 -36 -153 -39 -165 -22 -101 -110
-418 -166 -603 -238 -784 -542 -1522 -931 -2253 -48 -91 -92 -172 -97 -180 -6
-8 -38 -64 -73 -125 -34 -60 -68 -119 -75 -130 -7 -11 -15 -27 -19 -35 -4 -8
-22 -37 -39 -65 -17 -27 -74 -117 -125 -200 -194 -311 -546 -816 -714 -1022
-8 -10 -74 -92 -146 -182 -73 -90 -142 -175 -155 -190 -13 -14 -54 -62 -91
-106 -38 -44 -85 -98 -104 -119 -19 -22 -44 -49 -55 -62 -226 -255 -793 -820
-967 -964 -17 -14 -45 -39 -62 -55 -89 -87 -512 -432 -731 -597 -698 -524
-1469 -986 -2233 -1339 l-167 -76 -3 -111 -3 -111 138 63 c76 35 170 78 208
96 95 44 438 216 500 250 140 77 392 216 407 225 9 5 47 28 85 49 210 121 605
376 873 565 235 165 633 471 834 641 60 51 349 304 370 324 12 12 53 50 91 85
178 163 618 607 749 756 15 17 37 41 50 55 24 27 113 127 155 175 15 17 51 59
80 95 30 36 57 67 61 70 24 18 423 532 532 685 31 44 62 86 68 93 6 7 85 124
176 260 90 136 168 252 172 257 9 11 176 284 202 330 10 17 48 82 85 145 269
459 577 1093 777 1595 21 55 43 109 48 120 71 161 276 768 362 1070 6 22 17
60 25 85 8 24 20 69 28 100 7 30 34 134 58 230 40 157 85 344 108 455 5 22 11
51 14 65 3 14 15 75 26 135 12 61 23 119 25 130 2 11 11 61 20 110 21 123 23
137 28 160 2 11 7 43 10 70 4 28 9 57 11 65 2 8 6 38 10 65 3 28 8 61 10 75 6
39 26 189 29 224 3 29 10 91 22 191 10 88 14 123 19 185 3 36 7 88 10 115 2
28 7 93 10 145 4 52 8 115 10 140 25 343 23 1374 -4 1511 -1 7 -191 7 -196 -1z"/>
    <path d="M33649 21211 c-1 -9 -1 -19 -1 -22 1 -3 4 -84 9 -180 14 -333 7
-1097 -12 -1344 -2 -22 -6 -85 -10 -140 -3 -55 -8 -116 -10 -135 -2 -19 -7
-73 -10 -120 -4 -47 -8 -96 -10 -110 -2 -14 -6 -59 -10 -100 -3 -41 -8 -82
-10 -90 -2 -8 -7 -44 -10 -80 -9 -83 -10 -96 -41 -320 -4 -29 -63 -389 -79
-485 -3 -16 -14 -75 -25 -130 -11 -55 -21 -111 -24 -125 -9 -52 -76 -356 -85
-390 -6 -19 -26 -102 -46 -185 -19 -82 -42 -172 -50 -200 -8 -27 -42 -147 -75
-265 -113 -395 -360 -1111 -455 -1315 -7 -16 -42 -97 -76 -180 -158 -379 -471
-1021 -629 -1290 -10 -16 -30 -52 -45 -80 -133 -243 -429 -712 -651 -1031
-100 -144 -367 -509 -384 -524 -3 -3 -18 -23 -35 -45 -16 -22 -32 -42 -35 -45
-3 -3 -28 -34 -55 -70 -27 -36 -59 -76 -71 -90 -12 -14 -67 -79 -122 -145
-256 -308 -447 -517 -777 -849 -252 -252 -363 -358 -580 -551 -49 -44 -92 -82
-95 -85 -3 -3 -34 -30 -70 -60 -36 -30 -70 -59 -76 -65 -6 -5 -29 -25 -52 -43
-23 -19 -50 -42 -62 -52 -12 -10 -40 -33 -62 -52 -23 -18 -67 -54 -97 -79
-301 -247 -792 -597 -1206 -859 -55 -35 -123 -78 -152 -97 -28 -18 -54 -33
-57 -33 -3 0 -24 -13 -48 -29 -44 -29 -342 -201 -458 -264 -370 -200 -742
-382 -1065 -522 -60 -26 -123 -53 -140 -60 -16 -7 -51 -22 -77 -34 l-48 -20 0
-115 0 -115 98 40 c53 23 111 47 127 54 17 7 77 34 135 58 58 25 143 63 190
85 47 22 108 50 135 62 137 61 593 294 775 395 41 23 98 54 125 70 439 242
1030 630 1485 974 147 110 450 351 522 413 14 13 37 32 50 42 39 33 231 199
268 233 19 17 46 41 60 53 141 122 660 632 829 815 41 44 95 103 120 130 172
185 565 654 687 820 16 22 32 42 35 45 7 6 204 272 289 390 64 89 360 528 360
534 0 3 22 37 48 78 95 143 442 735 442 752 0 3 14 29 31 58 35 58 275 535
334 663 31 67 72 159 170 380 158 356 417 1061 514 1400 11 39 34 115 50 170
17 55 33 109 36 120 3 11 40 160 84 330 44 171 81 324 84 340 3 17 15 73 27
125 12 52 24 106 26 120 3 14 13 68 24 120 17 84 24 121 44 245 3 17 10 55 16
85 6 30 13 73 16 95 3 22 12 78 19 125 8 47 17 108 20 135 4 28 8 57 10 65 3
8 7 42 11 74 3 33 7 67 9 75 2 14 12 95 20 171 2 14 6 52 9 85 19 174 23 207
31 310 3 44 8 103 10 130 3 28 7 93 10 145 3 52 7 136 10 185 11 182 15 377
15 680 0 381 -13 741 -26 754 -3 3 -50 6 -105 7 -84 1 -99 -2 -100 -15z"/>
    <path d="M34536 21076 c16 -310 10 -1157 -11 -1451 -2 -27 -6 -95 -10 -150 -3
-55 -8 -118 -10 -140 -9 -85 -15 -153 -20 -226 -3 -42 -7 -85 -9 -95 -2 -11
-7 -55 -11 -99 -4 -44 -9 -88 -11 -99 -2 -10 -6 -44 -9 -75 -5 -50 -21 -167
-30 -224 -2 -12 -6 -44 -10 -72 -7 -55 -22 -156 -30 -195 -3 -14 -8 -45 -11
-70 -3 -25 -7 -56 -10 -70 -2 -14 -13 -74 -24 -135 -11 -60 -22 -121 -25 -135
-3 -14 -11 -59 -20 -100 -8 -41 -17 -86 -19 -100 -5 -28 -23 -114 -30 -145 -2
-11 -9 -40 -15 -65 -5 -25 -13 -60 -16 -79 -3 -19 -8 -37 -10 -41 -2 -3 -6
-17 -8 -31 -6 -30 -54 -232 -66 -279 -5 -19 -16 -60 -25 -90 -8 -30 -33 -124
-56 -209 -121 -453 -386 -1233 -535 -1576 -7 -16 -42 -100 -78 -185 -391 -926
-898 -1833 -1491 -2665 -113 -159 -306 -419 -369 -496 -15 -19 -59 -74 -98
-124 -40 -49 -84 -104 -98 -121 -14 -17 -42 -50 -61 -74 -45 -57 -222 -264
-269 -315 -20 -22 -54 -60 -75 -85 -264 -303 -756 -797 -1079 -1085 -44 -39
-89 -79 -101 -90 -12 -11 -51 -45 -86 -75 -36 -30 -83 -71 -105 -90 -92 -82
-290 -242 -525 -427 -30 -24 -59 -47 -65 -51 -142 -112 -481 -352 -750 -532
-816 -545 -1719 -1016 -2627 -1373 l-158 -62 0 -122 0 -122 78 29 c164 61 724
293 747 309 6 4 35 18 65 30 190 80 918 444 1002 503 14 10 29 18 32 18 3 0
44 23 92 50 48 28 88 50 90 50 6 0 366 217 519 313 208 131 517 339 719 485
152 110 485 359 496 372 3 3 50 41 105 84 55 44 102 82 105 85 3 3 27 24 55
46 27 22 84 69 126 105 42 36 98 84 125 107 27 22 58 49 69 60 11 10 61 54
110 98 317 282 669 630 1035 1024 26 29 226 255 251 285 13 16 35 41 49 56 14
15 32 36 40 46 8 11 60 73 115 139 55 67 114 138 130 159 29 38 79 100 113
141 26 30 302 401 352 473 25 34 59 82 76 105 82 111 440 656 499 759 6 9 51
86 101 170 239 399 491 877 669 1263 43 94 93 203 111 243 19 40 34 79 34 87
0 8 5 15 10 15 6 0 10 5 10 11 0 5 38 101 84 213 151 361 281 714 406 1101 49
151 206 687 214 730 2 11 20 83 40 160 61 244 117 488 142 625 2 14 7 36 10
50 3 14 8 34 10 45 2 11 6 29 8 40 4 23 33 174 41 220 3 17 7 41 10 55 5 28
44 269 51 315 2 17 6 41 9 55 2 14 7 48 10 75 3 28 10 79 15 115 5 36 12 88
15 115 4 28 8 61 11 75 2 14 6 54 9 90 3 36 7 76 10 90 2 14 7 54 10 90 3 36
8 85 10 110 5 42 9 91 19 221 29 361 40 662 40 1094 0 376 -9 750 -19 776 -4
12 -29 15 -116 15 l-110 0 7 -150z"/>
    <path d="M35417 21086 c16 -294 8 -1294 -12 -1506 -2 -25 -7 -92 -10 -150 -3
-58 -8 -121 -10 -140 -2 -19 -7 -70 -10 -113 -6 -83 -9 -110 -20 -222 -10 -95
-11 -110 -19 -190 -4 -38 -9 -81 -11 -95 -2 -14 -7 -43 -9 -65 -17 -134 -34
-258 -41 -304 -2 -13 -7 -45 -10 -70 -4 -25 -13 -82 -21 -126 -7 -44 -16 -98
-19 -120 -2 -22 -7 -51 -10 -65 -5 -28 -41 -226 -50 -278 -3 -18 -12 -65 -21
-105 -8 -39 -18 -83 -20 -97 -8 -43 -33 -161 -54 -255 -11 -49 -22 -99 -24
-110 -13 -65 -133 -530 -181 -695 -31 -107 -58 -203 -60 -212 -11 -51 -196
-623 -214 -663 -5 -11 -19 -49 -31 -85 -12 -36 -26 -74 -30 -85 -5 -11 -21
-54 -36 -95 -132 -359 -316 -797 -502 -1195 -66 -141 -288 -580 -357 -705 -32
-58 -76 -139 -98 -180 -48 -89 -262 -454 -288 -492 -11 -14 -19 -29 -19 -32 0
-9 -355 -562 -370 -576 -3 -3 -34 -48 -69 -100 -140 -207 -537 -747 -581 -790
-3 -3 -41 -50 -84 -105 -66 -82 -252 -307 -291 -351 -5 -6 -35 -40 -65 -75
-116 -133 -280 -316 -390 -434 -187 -201 -690 -695 -862 -848 -534 -473 -906
-772 -1368 -1102 -265 -189 -711 -483 -910 -600 -36 -21 -88 -53 -117 -71 -28
-19 -54 -34 -58 -34 -4 0 -19 -8 -33 -19 -15 -10 -47 -29 -72 -43 -25 -14 -92
-52 -150 -85 -429 -247 -1100 -574 -1580 -772 -69 -29 -134 -56 -145 -60 -11
-5 -36 -16 -55 -24 -37 -16 -459 -175 -522 -198 l-38 -13 0 -128 c0 -70 2
-128 5 -128 9 0 475 174 550 205 17 7 73 30 125 50 117 47 414 173 495 209 33
15 125 58 205 94 213 97 626 305 855 430 171 93 226 124 325 182 69 40 516
308 555 332 235 147 717 479 951 655 158 118 229 173 349 267 77 61 169 135
205 164 36 30 74 61 85 71 11 9 47 39 80 67 33 28 70 59 83 70 13 10 34 28 46
39 22 19 139 123 179 157 251 220 725 679 942 913 223 240 270 291 330 360
117 133 322 375 375 440 35 44 67 82 70 85 11 9 224 283 331 425 255 340 423
581 684 985 157 243 404 665 573 980 119 223 442 876 442 895 0 2 16 39 36 82
220 476 495 1211 669 1788 20 66 42 140 50 165 16 52 34 122 35 132 0 4 7 26
15 49 9 23 17 51 20 63 2 12 36 145 75 296 38 151 72 291 75 310 3 19 10 49
15 65 7 24 53 240 74 345 2 14 9 45 14 70 6 25 13 63 17 85 9 62 15 96 26 143
5 23 12 59 15 80 2 20 9 60 14 87 5 28 11 66 14 85 3 19 12 78 20 130 8 52 18
113 21 135 3 22 7 51 10 65 4 24 29 218 40 310 3 25 7 61 10 80 2 19 7 64 10
100 3 36 8 81 10 100 2 19 7 64 10 100 3 36 8 85 10 110 12 133 15 173 21 260
3 52 7 114 9 137 3 43 14 276 20 438 11 276 5 929 -9 1220 l-2 40 -122 1 -122
0 7 -140z"/>
  </g>
</svg>
